<?xml version="1.0" encoding="UTF-8" standalone="no"?>
<!DOCTYPE svg PUBLIC "-//W3C//DTD SVG 1.1//EN" "http://www.w3.org/Graphics/SVG/1.1/DTD/svg11.dtd">

<!-- Created with Vectornator (http://vectornator.io/) -->
<svg height="100%" stroke-miterlimit="10" style="fill-rule:nonzero;clip-rule:evenodd;stroke-linecap:round;stroke-linejoin:round;" version="1.1" viewBox="0 0 1100 680" width="100%" xml:space="preserve" xmlns="http://www.w3.org/2000/svg" xmlns:vectornator="http://vectornator.io" xmlns:xlink="http://www.w3.org/1999/xlink">
<metadata>
<vectornator:setting key="IsTimeLapseWatermarkDisabled" value="false"/>
<vectornator:setting key="UndoHistoryDisabled" value="true"/>
<vectornator:setting key="VNDimensionsVisible" value="true"/>
<vectornator:setting key="VNSnapToGuides" value="true"/>
<vectornator:setting key="WDCMYKEnabledKey" value="false"/>
<vectornator:setting key="WDDisplayWhiteBackground" value="false"/>
<vectornator:setting key="WDDynamicGuides" value="false"/>
<vectornator:setting key="WDGuidesVisible" value="true"/>
<vectornator:setting key="WDIsolateActiveLayer" value="false"/>
<vectornator:setting key="WDOutlineMode" value="false"/>
<vectornator:setting key="WDRulersVisible" value="true"/>
<vectornator:setting key="WDSnapToEdges" value="false"/>
<vectornator:setting key="WDSnapToGrid" value="false"/>
<vectornator:setting key="WDSnapToPoints" value="false"/>
<vectornator:setting key="WDUnits" value="Pixels"/>
</metadata>
<defs>
<clipPath id="TextBounds">
<rect height="1144.69" width="1544.6" x="37.1412" y="-115.201"/>
</clipPath>
<clipPath id="TextBounds_2">
<rect height="1.08475" width="382.127" x="426.046" y="550.824"/>
</clipPath>
<clipPath id="TextBounds_3">
<rect height="7.4433" width="728.811" x="1108.11" y="-162.586"/>
</clipPath>
<clipPath id="TextBounds_4">
<rect height="0.384919" width="262.136" x="94.1336" y="271.887"/>
</clipPath>
<clipPath id="TextBounds_5">
<rect height="1.53684" width="730.709" x="1162.67" y="211.25"/>
</clipPath>
<clipPath id="TextBounds_6">
<rect height="3.07367" width="178.556" x="-184.706" y="315.754"/>
</clipPath>
<clipPath id="TextBounds_7">
<rect height="15.3684" width="210.72" x="-106.218" y="31.4399"/>
</clipPath>
<clipPath id="TextBounds_8">
<rect height="801.96" width="1112.58" x="151.227" y="-117.366"/>
</clipPath>
<clipPath id="TextBounds_9">
<rect height="1.08475" width="382.127" x="426.046" y="550.824"/>
</clipPath>
<clipPath id="TextBounds_10">
<rect height="7.4433" width="728.811" x="1108.11" y="-162.586"/>
</clipPath>
<clipPath id="TextBounds_11">
<rect height="0.384919" width="262.136" x="94.1336" y="271.887"/>
</clipPath>
</defs>
<g id="レイヤー-1-" vectornator:layerName="レイヤー 1 ">
<g fill="#000000" opacity="1" stroke="#50b4bd" stroke-linecap="round" stroke-linejoin="round" stroke-width="75.5083">
<path clip-path="url(#TextBounds)" d="M226.121 447.239C208.348 447.239 194.158 440.789 183.551 427.889C172.945 414.989 167.641 398.075 167.641 377.149C167.641 354.215 172.945 332.5 183.551 312.004C194.158 291.507 208.276 275.024 225.906 262.554C243.536 250.084 262.241 243.849 282.021 243.849C288.328 243.849 292.556 245.067 294.706 247.504C296.856 249.94 298.648 254.312 300.081 260.619C306.101 259.472 312.408 258.899 319.001 258.899C333.048 258.899 340.071 263.915 340.071 273.949C340.071 279.969 337.921 294.302 333.621 316.949C327.028 349.915 323.731 372.849 323.731 385.749C323.731 390.049 324.806 393.489 326.956 396.069C329.106 398.649 331.901 399.939 335.341 399.939C340.788 399.939 347.381 396.427 355.121 389.404C362.861 382.38 373.325 370.985 386.511 355.219C389.951 351.205 393.821 349.199 398.121 349.199C401.848 349.199 404.786 350.919 406.936 354.359C409.086 357.799 410.161 362.529 410.161 368.549C410.161 380.015 407.438 388.902 401.991 395.209C390.238 409.829 377.768 422.155 364.581 432.189C351.395 442.222 338.638 447.239 326.311 447.239C316.851 447.239 308.18 444.014 300.296 437.564C292.413 431.114 286.465 422.299 282.451 411.119C267.545 435.199 248.768 447.239 226.121 447.239ZM241.601 403.809C247.908 403.809 253.928 400.082 259.661 392.629C265.395 385.175 269.551 375.285 272.131 362.959L288.041 283.839C276.001 284.125 264.893 288.64 254.716 297.384C244.54 306.127 236.441 317.665 230.421 331.999C224.401 346.332 221.391 361.525 221.391 377.579C221.391 386.465 223.183 393.059 226.766 397.359C230.35 401.659 235.295 403.809 241.601 403.809Z" fill-rule="evenodd"/>
<path clip-path="url(#TextBounds)" d="M538.301 349.199C542.028 349.199 544.966 350.919 547.116 354.359C549.266 357.799 550.341 362.529 550.341 368.549C550.341 380.015 547.618 388.902 542.171 395.209C529.845 410.402 516.443 422.872 501.966 432.619C487.49 442.365 471.078 447.239 452.731 447.239C427.505 447.239 408.8 435.772 396.616 412.839C384.433 389.905 378.341 360.235 378.341 323.829C378.341 288.855 382.856 249.009 391.886 204.289C400.916 159.569 414.246 121.155 431.876 89.0486C449.506 56.9419 470.505 40.8886 494.871 40.8886C508.631 40.8886 519.453 47.2669 527.336 60.0236C535.22 72.7802 539.161 91.0552 539.161 114.849C539.161 148.962 529.701 188.522 510.781 233.529C491.861 278.535 466.205 323.112 433.811 367.259C435.818 379.012 439.115 387.397 443.701 392.414C448.288 397.43 454.308 399.939 461.761 399.939C473.515 399.939 483.835 396.57 492.721 389.834C501.608 383.097 512.931 371.559 526.691 355.219C530.131 351.205 534.001 349.199 538.301 349.199ZM485.411 83.4586C478.818 83.4586 471.365 95.3552 463.051 119.149C454.738 142.942 447.428 172.469 441.121 207.729C434.815 242.989 431.375 276.815 430.801 309.209C451.155 275.669 467.351 242.057 479.391 208.374C491.431 174.69 497.451 143.945 497.451 116.139C497.451 94.3519 493.438 83.4586 485.411 83.4586Z" fill-rule="evenodd"/>
<path clip-path="url(#TextBounds)" d="M735.671 350.059C739.398 350.059 742.336 351.85 744.486 355.434C746.636 359.017 747.711 363.532 747.711 368.979C747.711 375.572 746.708 380.732 744.701 384.459C742.695 388.185 739.541 391.482 735.241 394.349C710.588 410.975 692.528 423.302 681.061 431.329L653.541 449.819C642.648 509.159 628.386 555.814 610.756 589.784C593.126 623.754 570.695 640.739 543.461 640.739C528.841 640.739 516.945 636.224 507.771 627.194C498.598 618.164 494.011 606.339 494.011 591.719C494.011 571.365 502.038 549.507 518.091 526.144C534.145 502.78 564.245 474.042 608.391 439.929L610.971 423.159C606.098 430.899 599.72 436.847 591.836 441.004C583.953 445.16 576.141 447.239 568.401 447.239C550.628 447.239 536.438 440.789 525.831 427.889C515.225 414.989 509.921 398.075 509.921 377.149C509.921 354.215 515.225 332.5 525.831 312.004C536.438 291.507 550.556 275.024 568.186 262.554C585.816 250.084 604.521 243.849 624.301 243.849C630.608 243.849 634.836 245.067 636.986 247.504C639.136 249.94 640.928 254.312 642.361 260.619C647.808 259.472 654.115 258.899 661.281 258.899C668.448 258.899 673.536 259.974 676.546 262.124C679.556 264.274 681.061 268.502 681.061 274.809C681.061 278.249 680.918 280.972 680.631 282.979C679.485 291.865 675.901 314.369 669.881 350.489C668.735 357.369 667.516 364.894 666.226 373.064C664.936 381.234 663.575 389.905 662.141 399.079C684.215 381.879 705.428 366.685 725.781 353.499C729.508 351.205 732.805 350.059 735.671 350.059ZM583.881 403.809C590.475 403.809 596.781 399.795 602.801 391.769C608.821 383.742 613.121 372.275 615.701 357.369L629.461 283.839C617.708 284.125 606.815 288.64 596.781 297.384C586.748 306.127 578.721 317.665 572.701 331.999C566.681 346.332 563.671 361.525 563.671 377.579C563.671 386.465 565.463 393.059 569.046 397.359C572.63 401.659 577.575 403.809 583.881 403.809ZM548.191 599.029C555.358 599.029 563.456 590.429 572.486 573.229C581.516 556.029 590.188 528.652 598.501 491.099C576.428 510.019 560.518 527.075 550.771 542.269C541.025 557.462 536.151 570.792 536.151 582.259C536.151 587.132 537.083 591.145 538.946 594.299C540.81 597.452 543.891 599.029 548.191 599.029Z" fill-rule="evenodd"/>
<path clip-path="url(#TextBounds)" d="M794.151 447.239C777.238 447.239 762.833 443.01 750.936 434.554C739.04 426.097 730.081 414.989 724.061 401.229C718.041 387.469 715.031 372.705 715.031 356.939C715.031 335.152 719.116 315.73 727.286 298.674C735.456 281.617 746.565 268.287 760.611 258.684C774.658 249.08 790.425 244.279 807.911 244.279C824.825 244.279 839.301 248.507 851.341 256.964C863.381 265.42 872.411 276.529 878.431 290.289C884.451 304.049 887.461 318.812 887.461 334.579C887.461 356.365 883.305 375.787 874.991 392.844C866.678 409.9 855.426 423.23 841.236 432.834C827.046 442.437 811.351 447.239 794.151 447.239ZM798.881 400.799C808.628 400.799 816.87 395.495 823.606 384.889C830.343 374.282 833.711 358.802 833.711 338.449C833.711 322.682 830.845 310.785 825.111 302.759C819.378 294.732 812.498 290.719 804.471 290.719C794.151 290.719 785.623 295.95 778.886 306.414C772.15 316.877 768.781 332.429 768.781 353.069C768.781 369.409 771.648 381.449 777.381 389.189C783.115 396.929 790.281 400.799 798.881 400.799Z" fill-rule="evenodd"/>
</g>
<g fill="#000000" opacity="0.251923" stroke="none">
<path clip-path="url(#TextBounds_2)" d="M687.65 697.112C704.706 697.112 714.218 697.44 725.37 698.752L725.37 674.48C713.89 676.12 706.018 676.448 687.322 676.448L495.442 676.448C476.746 676.448 468.874 676.12 457.394 674.48L457.394 698.752C468.546 697.44 478.058 697.112 495.114 697.112L584.002 697.112C583.346 722.696 578.426 748.608 570.882 765.008C557.434 794.856 530.866 815.848 487.898 829.624C496.098 837.496 498.722 841.104 503.314 850.944C530.21 840.12 546.61 830.936 561.042 818.472C585.97 797.48 599.746 770.584 605.322 731.88C607.29 719.088 608.602 706.952 608.93 697.112L687.65 697.112ZM490.522 618.064C500.362 616.752 508.89 616.424 527.914 616.424L656.162 616.424C675.186 616.424 683.714 616.752 693.554 618.064L693.554 593.136C682.73 595.104 676.17 595.432 655.834 595.432L528.242 595.432C507.906 595.432 501.346 595.104 490.522 593.136L490.522 618.064Z" fill-rule="evenodd"/>
<path clip-path="url(#TextBounds_2)" d="M566.946 1134.99L500.034 1145.49C485.274 1147.78 476.746 1148.44 465.922 1148.77L470.514 1173.7C479.042 1171.07 489.866 1168.78 503.314 1166.48L570.882 1155.98L582.69 1222.24L495.442 1236.34C481.994 1238.64 473.794 1239.3 462.97 1239.3L467.234 1264.22C478.058 1260.94 480.026 1260.62 498.722 1257.66L586.626 1243.56L600.074 1317.03C602.37 1331.46 603.682 1339.66 604.01 1348.52L630.25 1343.6C626.97 1333.43 625.986 1329.5 623.034 1312.44L609.586 1239.95L691.914 1226.83C694.21 1226.5 695.85 1226.18 699.458 1225.52C705.034 1224.54 708.314 1223.88 709.626 1223.88C715.53 1222.9 717.498 1222.57 724.058 1222.24L719.466 1197.97C711.266 1200.92 701.754 1202.89 686.994 1205.51L605.65 1218.63L593.186 1152.38L667.642 1140.9C687.978 1137.62 687.978 1137.62 696.834 1136.63L692.242 1113.02C684.698 1115.64 677.81 1117.28 663.378 1119.58L589.25 1131.06L582.69 1094.98C580.066 1081.2 579.41 1074.97 579.082 1067.1L553.17 1071.36C556.45 1079.23 558.09 1085.46 560.386 1099.24L566.946 1134.99Z" fill-rule="evenodd"/>
<path clip-path="url(#TextBounds_2)" d="M723.074 1805.75C685.682 1766.06 656.818 1740.15 613.85 1707.35C634.186 1682.1 649.602 1656.18 667.97 1615.51C671.578 1607.31 673.874 1603.38 677.154 1599.44L663.378 1585.34C657.802 1587.3 653.866 1587.63 642.386 1587.96L525.29 1589.27C520.698 1589.27 517.746 1589.27 516.762 1589.27C505.61 1589.27 499.706 1588.94 490.85 1587.63L491.506 1614.2C501.018 1612.56 510.53 1611.9 525.29 1611.58L634.842 1609.94C638.778 1609.94 639.762 1609.94 642.714 1609.61C642.386 1610.59 642.386 1610.92 641.73 1611.9C641.074 1613.54 640.746 1613.87 640.09 1615.84C616.146 1673.24 575.474 1725.06 522.994 1763.77C497.738 1782.46 481.666 1791.32 456.41 1801.49C464.61 1809.69 467.234 1813.3 472.482 1823.14C496.754 1811 514.138 1800.18 536.77 1783.78C560.386 1766.39 576.458 1751.3 599.418 1725.06C641.402 1757.54 678.466 1793.29 704.378 1826.42L723.074 1805.75Z" fill-rule="evenodd"/>
<path clip-path="url(#TextBounds_2)" d="M552.842 2325.63C551.53 2316.45 551.202 2309.23 551.202 2290.86L551.202 2192.14C551.202 2183.94 550.874 2179.34 549.89 2172.78L550.546 2172.46C553.498 2174.75 555.794 2176.06 560.714 2178.03C606.962 2197.06 652.226 2221.33 683.058 2242.98L697.162 2218.7C639.762 2185.58 601.714 2167.54 551.202 2149.5L551.202 2088.16C551.202 2069.46 551.53 2062.58 552.842 2054.05L524.634 2054.05C525.946 2062.25 526.602 2070.12 526.602 2087.5L526.602 2291.19C526.602 2308.9 525.946 2316.78 524.634 2325.63L552.842 2325.63Z" fill-rule="evenodd"/>
</g>
<g fill="#000000" opacity="1" stroke="none">
<path clip-path="url(#TextBounds_3)" d="M1525.94 71.5644C1553.24 71.5644 1568.46 72.0894 1586.31 74.1894L1586.31 35.3394C1567.94 37.9644 1555.34 38.4894 1525.41 38.4894L1218.29 38.4894C1188.36 38.4894 1175.76 37.9644 1157.39 35.3394L1157.39 74.1894C1175.24 72.0894 1190.46 71.5644 1217.76 71.5644L1360.04 71.5644C1358.99 112.514 1351.11 153.989 1339.04 180.239C1317.51 228.014 1274.99 261.614 1206.21 283.664C1219.34 296.264 1223.54 302.039 1230.89 317.789C1273.94 300.464 1300.19 285.764 1323.29 265.814C1363.19 232.214 1385.24 189.164 1394.16 127.214C1397.31 106.739 1399.41 87.3144 1399.94 71.5644L1525.94 71.5644ZM1210.41-54.9606C1226.16-57.0606 1239.81-57.5856 1270.26-57.5856L1475.54-57.5856C1505.99-57.5856 1519.64-57.0606 1535.39-54.9606L1535.39-94.8606C1518.06-91.7106 1507.56-91.1856 1475.01-91.1856L1270.79-91.1856C1238.24-91.1856 1227.74-91.7106 1210.41-94.8606L1210.41-54.9606Z" fill-rule="evenodd"/>
<path clip-path="url(#TextBounds_3)" d="M1332.74 772.439L1225.64 789.239C1202.01 792.914 1188.36 793.964 1171.04 794.489L1178.39 834.389C1192.04 830.189 1209.36 826.514 1230.89 822.839L1339.04 806.039L1357.94 912.089L1218.29 934.664C1196.76 938.339 1183.64 939.389 1166.31 939.389L1173.14 979.289C1190.46 974.039 1193.61 973.514 1223.54 968.789L1364.24 946.214L1385.76 1063.81C1389.44 1086.91 1391.54 1100.04 1392.06 1114.21L1434.06 1106.34C1428.81 1090.06 1427.24 1083.76 1422.51 1056.46L1400.99 940.439L1532.76 919.439C1536.44 918.914 1539.06 918.389 1544.84 917.339C1553.76 915.764 1559.01 914.714 1561.11 914.714C1570.56 913.139 1573.71 912.614 1584.21 912.089L1576.86 873.239C1563.74 877.964 1548.51 881.114 1524.89 885.314L1394.69 906.314L1374.74 800.264L1493.91 781.889C1526.46 776.639 1526.46 776.639 1540.64 775.064L1533.29 737.264C1521.21 741.464 1510.19 744.089 1487.09 747.764L1368.44 766.139L1357.94 708.389C1353.74 686.339 1352.69 676.364 1352.16 663.764L1310.69 670.589C1315.94 683.189 1318.56 693.164 1322.24 715.214L1332.74 772.439Z" fill-rule="evenodd"/>
<path clip-path="url(#TextBounds_3)" d="M1582.64 1846.06C1522.79 1782.54 1476.59 1741.06 1407.81 1688.56C1440.36 1648.14 1465.04 1606.66 1494.44 1541.56C1500.21 1528.44 1503.89 1522.14 1509.14 1515.84L1487.09 1493.26C1478.16 1496.41 1471.86 1496.94 1453.49 1497.46L1266.06 1499.56C1258.71 1499.56 1253.99 1499.56 1252.41 1499.56C1234.56 1499.56 1225.11 1499.04 1210.94 1496.94L1211.99 1539.46C1227.21 1536.84 1242.44 1535.79 1266.06 1535.26L1441.41 1532.64C1447.71 1532.64 1449.29 1532.64 1454.01 1532.11C1453.49 1533.69 1453.49 1534.21 1452.44 1535.79C1451.39 1538.41 1450.86 1538.94 1449.81 1542.09C1411.49 1633.96 1346.39 1716.91 1262.39 1778.86C1221.96 1808.79 1196.24 1822.96 1155.81 1839.24C1168.94 1852.36 1173.14 1858.14 1181.54 1873.89C1220.39 1854.46 1248.21 1837.14 1284.44 1810.89C1322.24 1783.06 1347.96 1758.91 1384.71 1716.91C1451.91 1768.89 1511.24 1826.11 1552.71 1879.14L1582.64 1846.06Z" fill-rule="evenodd"/>
<path clip-path="url(#TextBounds_3)" d="M1310.16 2678.19C1308.06 2663.49 1307.54 2651.94 1307.54 2622.54L1307.54 2464.51C1307.54 2451.39 1307.01 2444.04 1305.44 2433.54L1306.49 2433.01C1311.21 2436.69 1314.89 2438.79 1322.76 2441.94C1396.79 2472.39 1469.24 2511.24 1518.59 2545.89L1541.16 2507.04C1449.29 2454.01 1388.39 2425.14 1307.54 2396.26L1307.54 2298.09C1307.54 2268.16 1308.06 2257.14 1310.16 2243.49L1265.01 2243.49C1267.11 2256.61 1268.16 2269.21 1268.16 2297.04L1268.16 2623.06C1268.16 2651.41 1267.11 2664.01 1265.01 2678.19L1310.16 2678.19Z" fill-rule="evenodd"/>
</g>
<g fill="#000000" opacity="1" stroke="none">
<path clip-path="url(#TextBounds_4)" d="M393.384 448.887C418.884 448.887 427.509 449.262 441.009 450.762L441.009 406.137C426.759 408.387 418.134 408.762 392.634 408.762L173.259 408.762C147.384 408.762 139.134 408.387 124.884 406.137L124.884 450.762C138.384 449.262 147.009 448.887 172.509 448.887L264.009 448.887C262.884 478.137 257.259 502.512 247.509 519.762C231.759 548.637 203.634 568.512 158.634 582.387C174.759 598.137 179.634 604.512 189.009 623.637C239.634 603.387 267.009 582.762 286.884 549.762C303.009 523.137 311.259 492.012 313.134 448.887L393.384 448.887ZM162.759 357.387C175.134 355.887 184.134 355.512 210.384 355.512L355.884 355.512C382.134 355.512 391.134 355.887 403.509 357.387L403.509 311.637C389.634 313.887 382.134 314.262 355.134 314.262L211.134 314.262C184.134 314.262 176.634 313.887 162.759 311.637L162.759 357.387Z" fill-rule="evenodd"/>
<path clip-path="url(#TextBounds_4)" d="M241.509 931.887L171.759 942.762C156.009 945.012 144.009 946.512 130.509 946.887L138.009 993.012C148.134 990.012 162.009 987.387 179.259 984.387L249.009 973.512L260.259 1035.01L169.134 1049.64C153.009 1052.26 142.134 1053.39 129.384 1053.39L136.884 1099.51C150.384 1095.76 157.134 1094.26 175.134 1091.26L267.759 1076.64L281.259 1150.51C284.259 1168.14 285.759 1178.64 286.134 1189.89L336.384 1180.89C332.259 1168.14 331.884 1167.01 327.384 1142.26L313.884 1069.51L403.134 1055.26C410.634 1054.14 415.509 1053.39 418.134 1053.01C420.009 1052.64 421.884 1052.26 424.134 1052.26C432.009 1050.76 433.509 1050.76 441.384 1050.39L433.134 1005.39C423.009 1008.39 409.884 1011.39 394.134 1014.01L306.009 1027.89L294.759 966.387L373.884 954.012C399.759 949.887 399.759 949.887 409.884 949.137L402.009 904.137C392.259 907.512 384.384 909.387 366.009 912.387L286.884 924.762L280.884 892.137C278.259 877.512 276.759 866.637 276.384 856.887L226.884 864.762C231.009 875.262 232.509 881.637 235.884 900.012L241.509 931.887Z" fill-rule="evenodd"/>
<path clip-path="url(#TextBounds_4)" d="M445.509 1700.26C400.134 1656.39 400.134 1656.39 390.759 1648.14C365.259 1625.26 345.009 1609.51 321.384 1593.76C344.259 1563.01 362.634 1530.39 379.884 1490.26C384.009 1480.89 387.009 1475.64 391.884 1470.01L367.134 1444.51C357.759 1447.89 354.759 1448.26 333.759 1448.64L201.759 1450.51C197.259 1450.51 194.259 1450.51 192.759 1450.51C177.384 1450.51 170.259 1450.14 159.759 1448.26L161.259 1496.26C174.009 1494.39 184.134 1493.64 202.134 1493.26C320.259 1491.39 320.259 1491.39 326.259 1491.01L322.134 1500.76C297.759 1559.26 252.759 1613.64 196.134 1653.39C168.009 1673.26 150.009 1683.39 121.134 1694.64C136.509 1710.76 141.009 1716.76 151.509 1736.26C208.884 1708.14 252.009 1675.14 294.384 1627.89C335.259 1659.01 378.384 1701.01 409.509 1739.26L445.509 1700.26Z" fill-rule="evenodd"/>
<path clip-path="url(#TextBounds_4)" d="M246.384 2306.26C245.259 2293.89 244.884 2284.14 244.884 2264.64L244.884 2165.64C244.884 2155.14 244.509 2150.64 243.384 2140.14C246.384 2142.01 247.509 2142.39 256.134 2146.51C318.759 2175.39 357.759 2196.76 388.884 2218.14L415.134 2173.89C355.134 2140.14 296.259 2112.76 244.884 2094.76L244.884 2025.01C244.884 2001.76 244.884 1996.89 246.384 1985.64L195.009 1985.64C196.509 1995.76 197.259 2005.51 197.259 2023.89L197.259 2264.26C197.259 2284.14 196.884 2294.26 195.009 2306.26L246.384 2306.26Z" fill-rule="evenodd"/>
</g>
<g fill="#000000" opacity="1" stroke="none">
<path clip-path="url(#TextBounds_5)" d="M1532.91 418.64C1557.09 418.64 1570.58 419.105 1586.39 420.965L1586.39 386.555C1570.11 388.88 1558.95 389.345 1532.45 389.345L1260.42 389.345C1233.92 389.345 1222.76 388.88 1206.48 386.555L1206.48 420.965C1222.29 419.105 1235.78 418.64 1259.96 418.64L1385.97 418.64C1385.04 454.91 1378.07 491.645 1367.37 514.895C1348.31 557.21 1310.64 586.97 1249.73 606.5C1261.35 617.66 1265.07 622.775 1271.58 636.725C1309.71 621.38 1332.96 608.36 1353.42 590.69C1388.76 560.93 1408.29 522.8 1416.2 467.93C1418.99 449.795 1420.85 432.59 1421.31 418.64L1532.91 418.64ZM1253.45 306.575C1267.4 304.715 1279.49 304.25 1306.46 304.25L1488.27 304.25C1515.24 304.25 1527.33 304.715 1541.28 306.575L1541.28 271.235C1525.94 274.025 1516.64 274.49 1487.81 274.49L1306.92 274.49C1278.09 274.49 1268.79 274.025 1253.45 271.235L1253.45 306.575Z" fill-rule="evenodd"/>
<path clip-path="url(#TextBounds_5)" d="M1361.79 1039.41L1266.93 1054.29C1246.01 1057.55 1233.92 1058.48 1218.57 1058.94L1225.08 1094.28C1237.17 1090.56 1252.52 1087.31 1271.58 1084.05L1367.37 1069.17L1384.11 1163.1L1260.42 1183.1C1241.36 1186.35 1229.73 1187.28 1214.39 1187.28L1220.43 1222.62C1235.78 1217.97 1238.57 1217.51 1265.07 1213.32L1389.69 1193.33L1408.76 1297.49C1412.01 1317.95 1413.87 1329.57 1414.34 1342.13L1451.54 1335.15C1446.89 1320.74 1445.49 1315.16 1441.31 1290.98L1422.24 1188.21L1538.96 1169.61C1542.21 1169.15 1544.54 1168.68 1549.65 1167.75C1557.56 1166.36 1562.21 1165.43 1564.07 1165.43C1572.44 1164.03 1575.23 1163.57 1584.53 1163.1L1578.02 1128.69C1566.39 1132.88 1552.91 1135.67 1531.98 1139.39L1416.66 1157.99L1398.99 1064.06L1504.55 1047.78C1533.38 1043.13 1533.38 1043.13 1545.93 1041.74L1539.42 1008.26C1528.73 1011.98 1518.96 1014.3 1498.5 1017.56L1393.41 1033.83L1384.11 982.685C1380.39 963.155 1379.46 954.32 1379 943.16L1342.26 949.205C1346.91 960.365 1349.24 969.2 1352.49 988.73L1361.79 1039.41Z" fill-rule="evenodd"/>
<path clip-path="url(#TextBounds_5)" d="M1583.13 1990.34C1530.12 1934.07 1489.2 1897.34 1428.29 1850.84C1457.12 1815.03 1478.97 1778.3 1505.01 1720.64C1510.13 1709.01 1513.38 1703.43 1518.03 1697.85L1498.5 1677.86C1490.6 1680.65 1485.02 1681.11 1468.74 1681.58L1302.74 1683.44C1296.23 1683.44 1292.04 1683.44 1290.65 1683.44C1274.84 1683.44 1266.47 1682.97 1253.91 1681.11L1254.84 1718.78C1268.33 1716.45 1281.81 1715.52 1302.74 1715.06L1458.05 1712.73C1463.63 1712.73 1465.02 1712.73 1469.21 1712.27C1468.74 1713.66 1468.74 1714.13 1467.81 1715.52C1466.88 1717.85 1466.42 1718.31 1465.49 1721.1C1431.54 1802.48 1373.88 1875.95 1299.48 1930.82C1263.68 1957.32 1240.89 1969.88 1205.09 1984.29C1216.71 1995.92 1220.43 2001.03 1227.87 2014.98C1262.28 1997.78 1286.93 1982.43 1319.01 1959.18C1352.49 1934.54 1375.28 1913.15 1407.83 1875.95C1467.35 1921.98 1519.89 1972.67 1556.63 2019.63L1583.13 1990.34Z" fill-rule="evenodd"/>
<path clip-path="url(#TextBounds_5)" d="M1341.8 2727.36C1339.94 2714.34 1339.47 2704.11 1339.47 2678.07L1339.47 2538.11C1339.47 2526.48 1339.01 2519.97 1337.61 2510.67L1338.54 2510.21C1342.73 2513.46 1345.98 2515.32 1352.96 2518.11C1418.52 2545.08 1482.69 2579.49 1526.4 2610.18L1546.4 2575.77C1465.02 2528.81 1411.08 2503.23 1339.47 2477.66L1339.47 2390.7C1339.47 2364.2 1339.94 2354.43 1341.8 2342.34L1301.81 2342.34C1303.67 2353.97 1304.6 2365.13 1304.6 2389.77L1304.6 2678.54C1304.6 2703.65 1303.67 2714.81 1301.81 2727.36L1341.8 2727.36Z" fill-rule="evenodd"/>
</g>
<g fill="#000000" opacity="1" stroke="none">
<path clip-path="url(#TextBounds_6)" d="M185.539 523.144C209.719 523.144 223.204 523.609 239.014 525.469L239.014 491.059C222.739 493.384 211.579 493.849 185.074 493.849L-86.9506 493.849C-113.456 493.849-124.616 493.384-140.891 491.059L-140.891 525.469C-125.081 523.609-111.596 523.144-87.4156 523.144L38.5994 523.144C37.6694 559.414 30.6944 596.149 19.9994 619.399C0.934357 661.714-36.7306 691.474-97.6456 711.004C-86.0206 722.164-82.3006 727.279-75.7906 741.229C-37.6606 725.884-14.4106 712.864 6.04936 695.194C41.3894 665.434 60.9194 627.304 68.8244 572.434C71.6144 554.299 73.4744 537.094 73.9394 523.144L185.539 523.144ZM-93.9256 411.079C-79.9756 409.219-67.8856 408.754-40.9156 408.754L140.899 408.754C167.869 408.754 179.959 409.219 193.909 411.079L193.909 375.739C178.564 378.529 169.264 378.994 140.434 378.994L-40.4506 378.994C-69.2806 378.994-78.5806 378.529-93.9256 375.739L-93.9256 411.079Z" fill-rule="evenodd"/>
<path clip-path="url(#TextBounds_6)" d="M14.4194 1143.92L-80.4406 1158.8C-101.366 1162.05-113.456 1162.98-128.801 1163.45L-122.291 1198.79C-110.201 1195.07-94.8556 1191.81-75.7906 1188.56L19.9994 1173.68L36.7394 1267.61L-86.9506 1287.6C-106.016 1290.86-117.641 1291.79-132.986 1291.79L-126.941 1327.13C-111.596 1322.48-108.806 1322.01-82.3006 1317.83L42.3194 1297.83L61.3844 1401.99C64.6394 1422.45 66.4994 1434.08 66.9644 1446.63L104.164 1439.66C99.5144 1425.24 98.1194 1419.66 93.9344 1395.48L74.8694 1292.72L191.584 1274.12C194.839 1273.65 197.164 1273.19 202.279 1272.26C210.184 1270.86 214.834 1269.93 216.694 1269.93C225.064 1268.54 227.854 1268.07 237.154 1267.61L230.644 1233.2C219.019 1237.38 205.534 1240.17 184.609 1243.89L69.2894 1262.49L51.6194 1168.56L157.174 1152.29C186.004 1147.64 186.004 1147.64 198.559 1146.24L192.049 1112.76C181.354 1116.48 171.589 1118.81 151.129 1122.06L46.0394 1138.34L36.7394 1087.19C33.0194 1067.66 32.0894 1058.82 31.6244 1047.66L-5.11064 1053.71C-0.460643 1064.87 1.86436 1073.7 5.11936 1093.23L14.4194 1143.92Z" fill-rule="evenodd"/>
<path clip-path="url(#TextBounds_6)" d="M235.759 2094.84C182.749 2038.58 141.829 2001.84 80.9144 1955.34C109.744 1919.54 131.599 1882.8 157.639 1825.14C162.754 1813.52 166.009 1807.94 170.659 1802.36L151.129 1782.36C143.224 1785.15 137.644 1785.62 121.369 1786.08L-44.6356 1787.94C-51.1456 1787.94-55.3306 1787.94-56.7256 1787.94C-72.5356 1787.94-80.9056 1787.48-93.4606 1785.62L-92.5306 1823.28C-79.0456 1820.96-65.5606 1820.03-44.6356 1819.56L110.674 1817.24C116.254 1817.24 117.649 1817.24 121.834 1816.77C121.369 1818.17 121.369 1818.63 120.439 1820.03C119.509 1822.35 119.044 1822.82 118.114 1825.61C84.1694 1906.98 26.5094 1980.45-47.8906 2035.32C-83.6956 2061.83-106.481 2074.38-142.286 2088.8C-130.661 2100.42-126.941 2105.54-119.501 2119.49C-85.0906 2102.28-60.4456 2086.94-28.3606 2063.69C5.11936 2039.04 27.9044 2017.65 60.4544 1980.45C119.974 2026.49 172.519 2077.17 209.254 2124.14L235.759 2094.84Z" fill-rule="evenodd"/>
<path clip-path="url(#TextBounds_6)" d="M-5.57564 2831.87C-7.43564 2818.85-7.90064 2808.62-7.90064 2782.58L-7.90064 2642.61C-7.90064 2630.99-8.36564 2624.48-9.76064 2615.18L-8.83064 2614.71C-4.64564 2617.97-1.39064 2619.83 5.58436 2622.62C71.1494 2649.59 135.319 2684 179.029 2714.69L199.024 2680.28C117.649 2633.31 63.7094 2607.74-7.90064 2582.16L-7.90064 2495.21C-7.90064 2468.7-7.43564 2458.94-5.57564 2446.85L-45.5656 2446.85C-43.7056 2458.47-42.7756 2469.63-42.7756 2494.28L-42.7756 2783.04C-42.7756 2808.15-43.7056 2819.31-45.5656 2831.87L-5.57564 2831.87Z" fill-rule="evenodd"/>
</g>
<g fill="#000000" opacity="1" stroke="none">
<path clip-path="url(#TextBounds_7)" d="M264.027 238.83C288.207 238.83 301.692 239.295 317.502 241.155L317.502 206.745C301.227 209.07 290.067 209.535 263.562 209.535L-8.46279 209.535C-34.9678 209.535-46.1278 209.07-62.4028 206.745L-62.4028 241.155C-46.5928 239.295-33.1078 238.83-8.92779 238.83L117.087 238.83C116.157 275.1 109.182 311.835 98.4872 335.085C79.4222 377.4 41.7572 407.16-19.1578 426.69C-7.53279 437.85-3.81279 442.965 2.69721 456.915C40.8272 441.57 64.0772 428.55 84.5372 410.88C119.877 381.12 139.407 342.99 147.312 288.12C150.102 269.985 151.962 252.78 152.427 238.83L264.027 238.83ZM-15.4378 126.765C-1.48779 124.905 10.6022 124.44 37.5722 124.44L219.387 124.44C246.357 124.44 258.447 124.905 272.397 126.765L272.397 91.4249C257.052 94.2149 247.752 94.6799 218.922 94.6799L38.0372 94.6799C9.20721 94.6799-0.0927891 94.2149-15.4378 91.4249L-15.4378 126.765Z" fill-rule="evenodd"/>
<path clip-path="url(#TextBounds_7)" d="M92.9072 859.605L-1.95279 874.485C-22.8778 877.74-34.9678 878.67-50.3128 879.135L-43.8028 914.475C-31.7128 910.755-16.3678 907.5 2.69721 904.245L98.4872 889.365L115.227 983.295L-8.46279 1003.29C-27.5278 1006.54-39.1528 1007.47-54.4978 1007.47L-48.4528 1042.81C-33.1078 1038.16-30.3178 1037.7-3.81279 1033.51L120.807 1013.52L139.872 1117.68C143.127 1138.14 144.987 1149.76 145.452 1162.32L182.652 1155.34C178.002 1140.93 176.607 1135.35 172.422 1111.17L153.357 1008.4L270.072 989.805C273.327 989.34 275.652 988.875 280.767 987.945C288.672 986.55 293.322 985.62 295.182 985.62C303.552 984.225 306.342 983.76 315.642 983.295L309.132 948.885C297.507 953.07 284.022 955.86 263.097 959.58L147.777 978.18L130.107 884.25L235.662 867.975C264.492 863.325 264.492 863.325 277.047 861.93L270.537 828.45C259.842 832.17 250.077 834.495 229.617 837.75L124.527 854.025L115.227 802.875C111.507 783.345 110.577 774.51 110.112 763.35L73.3772 769.395C78.0272 780.555 80.3522 789.39 83.6072 808.92L92.9072 859.605Z" fill-rule="evenodd"/>
<path clip-path="url(#TextBounds_7)" d="M314.247 1810.53C261.237 1754.26 220.317 1717.53 159.402 1671.03C188.232 1635.22 210.087 1598.49 236.127 1540.83C241.242 1529.2 244.497 1523.62 249.147 1518.04L229.617 1498.05C221.712 1500.84 216.132 1501.3 199.857 1501.77L33.8522 1503.63C27.3422 1503.63 23.1572 1503.63 21.7622 1503.63C5.95221 1503.63-2.41779 1503.16-14.9728 1501.3L-14.0428 1538.97C-0.557789 1536.64 12.9272 1535.71 33.8522 1535.25L189.162 1532.92C194.742 1532.92 196.137 1532.92 200.322 1532.46C199.857 1533.85 199.857 1534.32 198.927 1535.71C197.997 1538.04 197.532 1538.5 196.602 1541.29C162.657 1622.67 104.997 1696.14 30.5972 1751.01C-5.20779 1777.51-27.9928 1790.07-63.7978 1804.48C-52.1728 1816.11-48.4528 1821.22-41.0128 1835.17C-6.60279 1817.97 18.0422 1802.62 50.1272 1779.37C83.6072 1754.73 106.392 1733.34 138.942 1696.14C198.462 1742.17 251.007 1792.86 287.742 1839.82L314.247 1810.53Z" fill-rule="evenodd"/>
<path clip-path="url(#TextBounds_7)" d="M72.9122 2547.55C71.0522 2534.53 70.5872 2524.3 70.5872 2498.26L70.5872 2358.3C70.5872 2346.67 70.1222 2340.16 68.7272 2330.86L69.6572 2330.4C73.8422 2333.65 77.0972 2335.51 84.0722 2338.3C149.637 2365.27 213.807 2399.68 257.517 2430.37L277.512 2395.96C196.137 2349 142.197 2323.42 70.5872 2297.85L70.5872 2210.89C70.5872 2184.39 71.0522 2174.62 72.9122 2162.53L32.9222 2162.53C34.7822 2174.16 35.7122 2185.32 35.7122 2209.96L35.7122 2498.73C35.7122 2523.84 34.7822 2535 32.9222 2547.55L72.9122 2547.55Z" fill-rule="evenodd"/>
</g>
</g>
<g id="レイヤー-1--Copy" vectornator:layerName="レイヤー 1  Copy">
<g fill="#ffffff" opacity="1" stroke="none">
<path clip-path="url(#TextBounds_8)" d="M226.428 446.382C208.613 446.382 194.39 439.917 183.759 426.987C173.127 414.057 167.812 397.105 167.812 376.129C167.812 353.143 173.127 331.377 183.759 310.833C194.39 290.289 208.541 273.767 226.212 261.268C243.883 248.769 262.632 242.519 282.458 242.519C288.779 242.519 293.017 243.741 295.172 246.183C297.327 248.625 299.123 253.007 300.56 259.328C306.594 258.179 312.915 257.604 319.524 257.604C333.603 257.604 340.643 262.633 340.643 272.689C340.643 278.723 338.488 293.09 334.178 315.789C327.569 348.833 324.265 371.819 324.265 384.749C324.265 389.059 325.342 392.507 327.497 395.093C329.652 397.679 332.454 398.972 335.902 398.972C341.361 398.972 347.97 395.453 355.728 388.413C363.486 381.373 373.973 369.952 387.191 354.148C390.639 350.126 394.518 348.114 398.828 348.114C402.563 348.114 405.508 349.838 407.663 353.286C409.818 356.734 410.896 361.475 410.896 367.509C410.896 379.003 408.166 387.91 402.707 394.231C390.926 408.885 378.427 421.241 365.21 431.297C351.992 441.354 339.206 446.382 326.851 446.382C317.369 446.382 308.677 443.15 300.775 436.685C292.873 430.22 286.911 421.384 282.889 410.178C267.947 434.314 249.127 446.382 226.428 446.382ZM241.944 402.851C248.265 402.851 254.299 399.116 260.046 391.645C265.792 384.175 269.959 374.262 272.545 361.906L288.492 282.602C276.424 282.89 265.289 287.415 255.089 296.179C244.889 304.943 236.772 316.508 230.738 330.874C224.704 345.241 221.687 360.47 221.687 376.56C221.687 385.468 223.482 392.076 227.074 396.386C230.666 400.696 235.622 402.851 241.944 402.851Z" fill-rule="evenodd"/>
<path clip-path="url(#TextBounds_8)" d="M539.334 348.114C543.069 348.114 546.014 349.838 548.169 353.286C550.324 356.734 551.402 361.475 551.402 367.509C551.402 379.003 548.672 387.91 543.213 394.231C530.857 409.46 517.424 421.959 502.914 431.728C488.404 441.498 471.954 446.382 453.565 446.382C428.279 446.382 409.531 434.889 397.319 411.902C385.107 388.916 379.002 359.177 379.002 322.685C379.002 287.631 383.527 247.691 392.578 202.867C401.629 158.043 414.99 119.541 432.661 87.3595C450.332 55.1782 471.379 39.0875 495.803 39.0875C509.595 39.0875 520.441 45.4807 528.343 58.267C536.245 71.0533 540.196 89.3708 540.196 113.219C540.196 147.412 530.714 187.064 511.75 232.175C492.786 277.287 467.069 321.967 434.601 366.216C436.612 377.997 439.916 386.402 444.514 391.43C449.111 396.458 455.145 398.972 462.616 398.972C474.396 398.972 484.74 395.596 493.648 388.844C502.555 382.092 513.905 370.526 527.697 354.148C531.145 350.126 535.024 348.114 539.334 348.114ZM486.321 81.7565C479.712 81.7565 472.241 93.6808 463.909 117.529C455.576 141.378 448.249 170.973 441.928 206.315C435.606 241.657 432.158 275.563 431.584 308.031C451.984 274.413 468.219 240.724 480.287 206.962C492.355 173.2 498.389 142.384 498.389 114.512C498.389 92.6752 494.366 81.7565 486.321 81.7565Z" fill-rule="evenodd"/>
<path clip-path="url(#TextBounds_8)" d="M737.163 348.976C740.898 348.976 743.843 350.772 745.998 354.364C748.153 357.956 749.231 362.481 749.231 367.94C749.231 374.549 748.225 379.721 746.214 383.456C744.202 387.192 741.042 390.496 736.732 393.369C712.021 410.035 693.919 422.39 682.426 430.435L654.842 448.968C643.923 508.446 629.628 555.21 611.957 589.259C594.286 623.308 571.802 640.332 544.506 640.332C529.852 640.332 517.927 635.807 508.733 626.756C499.538 617.705 494.941 605.852 494.941 591.198C494.941 570.798 502.986 548.889 519.077 525.471C535.167 502.053 565.337 473.248 609.587 439.055L612.173 422.246C607.288 430.004 600.895 435.967 592.993 440.133C585.091 444.299 577.262 446.382 569.504 446.382C551.689 446.382 537.466 439.917 526.835 426.987C516.203 414.057 510.888 397.105 510.888 376.129C510.888 353.143 516.203 331.377 526.835 310.833C537.466 290.289 551.617 273.767 569.288 261.268C586.959 248.769 605.708 242.519 625.534 242.519C631.855 242.519 636.093 243.741 638.248 246.183C640.403 248.625 642.199 253.007 643.636 259.328C649.095 258.179 655.416 257.604 662.6 257.604C669.783 257.604 674.883 258.682 677.9 260.837C680.917 262.992 682.426 267.23 682.426 273.551C682.426 276.999 682.282 279.729 681.995 281.74C680.845 290.648 677.254 313.203 671.22 349.407C670.07 356.303 668.849 363.846 667.556 372.035C666.263 380.224 664.898 388.916 663.462 398.11C685.586 380.87 706.849 365.642 727.25 352.424C730.985 350.126 734.289 348.976 737.163 348.976ZM585.02 402.851C591.628 402.851 597.95 398.829 603.984 390.783C610.018 382.738 614.328 371.245 616.914 356.303L630.706 282.602C618.925 282.89 608.006 287.415 597.95 296.179C587.893 304.943 579.848 316.508 573.814 330.874C567.78 345.241 564.763 360.47 564.763 376.56C564.763 385.468 566.558 392.076 570.15 396.386C573.742 400.696 578.698 402.851 585.02 402.851ZM549.247 598.525C556.43 598.525 564.547 589.905 573.598 572.665C582.649 555.425 591.341 527.985 599.674 490.344C577.549 509.308 561.602 526.405 551.833 541.633C542.063 556.862 537.179 570.223 537.179 581.716C537.179 586.601 538.112 590.624 539.98 593.784C541.848 596.945 544.937 598.525 549.247 598.525Z" fill-rule="evenodd"/>
<path clip-path="url(#TextBounds_8)" d="M795.779 446.382C778.826 446.382 764.387 442.144 752.463 433.668C740.539 425.192 731.56 414.057 725.526 400.265C719.492 386.473 716.475 371.676 716.475 355.872C716.475 334.035 720.569 314.568 728.758 297.472C736.947 280.376 748.081 267.015 762.161 257.389C776.24 247.763 792.043 242.95 809.571 242.95C826.523 242.95 841.034 247.189 853.102 255.665C865.17 264.141 874.221 275.275 880.255 289.067C886.289 302.859 889.306 317.657 889.306 333.46C889.306 355.298 885.139 374.765 876.807 391.861C868.474 408.957 857.196 422.318 842.973 431.944C828.75 441.57 813.019 446.382 795.779 446.382ZM800.52 399.834C810.289 399.834 818.55 394.519 825.302 383.887C832.054 373.256 835.431 357.74 835.431 337.339C835.431 321.536 832.557 309.612 826.811 301.566C821.064 293.521 814.168 289.498 806.123 289.498C795.779 289.498 787.23 294.742 780.478 305.23C773.726 315.718 770.35 331.305 770.35 351.993C770.35 368.371 773.223 380.439 778.97 388.197C784.716 395.955 791.9 399.834 800.52 399.834Z" fill-rule="evenodd"/>
</g>
<g fill="#000000" opacity="0.251923" stroke="none">
<path clip-path="url(#TextBounds_9)" d="M687.65 697.112C704.706 697.112 714.218 697.44 725.37 698.752L725.37 674.48C713.89 676.12 706.018 676.448 687.322 676.448L495.442 676.448C476.746 676.448 468.874 676.12 457.394 674.48L457.394 698.752C468.546 697.44 478.058 697.112 495.114 697.112L584.002 697.112C583.346 722.696 578.426 748.608 570.882 765.008C557.434 794.856 530.866 815.848 487.898 829.624C496.098 837.496 498.722 841.104 503.314 850.944C530.21 840.12 546.61 830.936 561.042 818.472C585.97 797.48 599.746 770.584 605.322 731.88C607.29 719.088 608.602 706.952 608.93 697.112L687.65 697.112ZM490.522 618.064C500.362 616.752 508.89 616.424 527.914 616.424L656.162 616.424C675.186 616.424 683.714 616.752 693.554 618.064L693.554 593.136C682.73 595.104 676.17 595.432 655.834 595.432L528.242 595.432C507.906 595.432 501.346 595.104 490.522 593.136L490.522 618.064Z" fill-rule="evenodd"/>
<path clip-path="url(#TextBounds_9)" d="M566.946 1134.99L500.034 1145.49C485.274 1147.78 476.746 1148.44 465.922 1148.77L470.514 1173.7C479.042 1171.07 489.866 1168.78 503.314 1166.48L570.882 1155.98L582.69 1222.24L495.442 1236.34C481.994 1238.64 473.794 1239.3 462.97 1239.3L467.234 1264.22C478.058 1260.94 480.026 1260.62 498.722 1257.66L586.626 1243.56L600.074 1317.03C602.37 1331.46 603.682 1339.66 604.01 1348.52L630.25 1343.6C626.97 1333.43 625.986 1329.5 623.034 1312.44L609.586 1239.95L691.914 1226.83C694.21 1226.5 695.85 1226.18 699.458 1225.52C705.034 1224.54 708.314 1223.88 709.626 1223.88C715.53 1222.9 717.498 1222.57 724.058 1222.24L719.466 1197.97C711.266 1200.92 701.754 1202.89 686.994 1205.51L605.65 1218.63L593.186 1152.38L667.642 1140.9C687.978 1137.62 687.978 1137.62 696.834 1136.63L692.242 1113.02C684.698 1115.64 677.81 1117.28 663.378 1119.58L589.25 1131.06L582.69 1094.98C580.066 1081.2 579.41 1074.97 579.082 1067.1L553.17 1071.36C556.45 1079.23 558.09 1085.46 560.386 1099.24L566.946 1134.99Z" fill-rule="evenodd"/>
<path clip-path="url(#TextBounds_9)" d="M723.074 1805.75C685.682 1766.06 656.818 1740.15 613.85 1707.35C634.186 1682.1 649.602 1656.18 667.97 1615.51C671.578 1607.31 673.874 1603.38 677.154 1599.44L663.378 1585.34C657.802 1587.3 653.866 1587.63 642.386 1587.96L525.29 1589.27C520.698 1589.27 517.746 1589.27 516.762 1589.27C505.61 1589.27 499.706 1588.94 490.85 1587.63L491.506 1614.2C501.018 1612.56 510.53 1611.9 525.29 1611.58L634.842 1609.94C638.778 1609.94 639.762 1609.94 642.714 1609.61C642.386 1610.59 642.386 1610.92 641.73 1611.9C641.074 1613.54 640.746 1613.87 640.09 1615.84C616.146 1673.24 575.474 1725.06 522.994 1763.77C497.738 1782.46 481.666 1791.32 456.41 1801.49C464.61 1809.69 467.234 1813.3 472.482 1823.14C496.754 1811 514.138 1800.18 536.77 1783.78C560.386 1766.39 576.458 1751.3 599.418 1725.06C641.402 1757.54 678.466 1793.29 704.378 1826.42L723.074 1805.75Z" fill-rule="evenodd"/>
<path clip-path="url(#TextBounds_9)" d="M552.842 2325.63C551.53 2316.45 551.202 2309.23 551.202 2290.86L551.202 2192.14C551.202 2183.94 550.874 2179.34 549.89 2172.78L550.546 2172.46C553.498 2174.75 555.794 2176.06 560.714 2178.03C606.962 2197.06 652.226 2221.33 683.058 2242.98L697.162 2218.7C639.762 2185.58 601.714 2167.54 551.202 2149.5L551.202 2088.16C551.202 2069.46 551.53 2062.58 552.842 2054.05L524.634 2054.05C525.946 2062.25 526.602 2070.12 526.602 2087.5L526.602 2291.19C526.602 2308.9 525.946 2316.78 524.634 2325.63L552.842 2325.63Z" fill-rule="evenodd"/>
</g>
<g fill="#000000" opacity="1" stroke="none">
<path clip-path="url(#TextBounds_10)" d="M1525.94 71.5644C1553.24 71.5644 1568.46 72.0894 1586.31 74.1894L1586.31 35.3394C1567.94 37.9644 1555.34 38.4894 1525.41 38.4894L1218.29 38.4894C1188.36 38.4894 1175.76 37.9644 1157.39 35.3394L1157.39 74.1894C1175.24 72.0894 1190.46 71.5644 1217.76 71.5644L1360.04 71.5644C1358.99 112.514 1351.11 153.989 1339.04 180.239C1317.51 228.014 1274.99 261.614 1206.21 283.664C1219.34 296.264 1223.54 302.039 1230.89 317.789C1273.94 300.464 1300.19 285.764 1323.29 265.814C1363.19 232.214 1385.24 189.164 1394.16 127.214C1397.31 106.739 1399.41 87.3144 1399.94 71.5644L1525.94 71.5644ZM1210.41-54.9606C1226.16-57.0606 1239.81-57.5856 1270.26-57.5856L1475.54-57.5856C1505.99-57.5856 1519.64-57.0606 1535.39-54.9606L1535.39-94.8606C1518.06-91.7106 1507.56-91.1856 1475.01-91.1856L1270.79-91.1856C1238.24-91.1856 1227.74-91.7106 1210.41-94.8606L1210.41-54.9606Z" fill-rule="evenodd"/>
<path clip-path="url(#TextBounds_10)" d="M1332.74 772.439L1225.64 789.239C1202.01 792.914 1188.36 793.964 1171.04 794.489L1178.39 834.389C1192.04 830.189 1209.36 826.514 1230.89 822.839L1339.04 806.039L1357.94 912.089L1218.29 934.664C1196.76 938.339 1183.64 939.389 1166.31 939.389L1173.14 979.289C1190.46 974.039 1193.61 973.514 1223.54 968.789L1364.24 946.214L1385.76 1063.81C1389.44 1086.91 1391.54 1100.04 1392.06 1114.21L1434.06 1106.34C1428.81 1090.06 1427.24 1083.76 1422.51 1056.46L1400.99 940.439L1532.76 919.439C1536.44 918.914 1539.06 918.389 1544.84 917.339C1553.76 915.764 1559.01 914.714 1561.11 914.714C1570.56 913.139 1573.71 912.614 1584.21 912.089L1576.86 873.239C1563.74 877.964 1548.51 881.114 1524.89 885.314L1394.69 906.314L1374.74 800.264L1493.91 781.889C1526.46 776.639 1526.46 776.639 1540.64 775.064L1533.29 737.264C1521.21 741.464 1510.19 744.089 1487.09 747.764L1368.44 766.139L1357.94 708.389C1353.74 686.339 1352.69 676.364 1352.16 663.764L1310.69 670.589C1315.94 683.189 1318.56 693.164 1322.24 715.214L1332.74 772.439Z" fill-rule="evenodd"/>
<path clip-path="url(#TextBounds_10)" d="M1582.64 1846.06C1522.79 1782.54 1476.59 1741.06 1407.81 1688.56C1440.36 1648.14 1465.04 1606.66 1494.44 1541.56C1500.21 1528.44 1503.89 1522.14 1509.14 1515.84L1487.09 1493.26C1478.16 1496.41 1471.86 1496.94 1453.49 1497.46L1266.06 1499.56C1258.71 1499.56 1253.99 1499.56 1252.41 1499.56C1234.56 1499.56 1225.11 1499.04 1210.94 1496.94L1211.99 1539.46C1227.21 1536.84 1242.44 1535.79 1266.06 1535.26L1441.41 1532.64C1447.71 1532.64 1449.29 1532.64 1454.01 1532.11C1453.49 1533.69 1453.49 1534.21 1452.44 1535.79C1451.39 1538.41 1450.86 1538.94 1449.81 1542.09C1411.49 1633.96 1346.39 1716.91 1262.39 1778.86C1221.96 1808.79 1196.24 1822.96 1155.81 1839.24C1168.94 1852.36 1173.14 1858.14 1181.54 1873.89C1220.39 1854.46 1248.21 1837.14 1284.44 1810.89C1322.24 1783.06 1347.96 1758.91 1384.71 1716.91C1451.91 1768.89 1511.24 1826.11 1552.71 1879.14L1582.64 1846.06Z" fill-rule="evenodd"/>
<path clip-path="url(#TextBounds_10)" d="M1310.16 2678.19C1308.06 2663.49 1307.54 2651.94 1307.54 2622.54L1307.54 2464.51C1307.54 2451.39 1307.01 2444.04 1305.44 2433.54L1306.49 2433.01C1311.21 2436.69 1314.89 2438.79 1322.76 2441.94C1396.79 2472.39 1469.24 2511.24 1518.59 2545.89L1541.16 2507.04C1449.29 2454.01 1388.39 2425.14 1307.54 2396.26L1307.54 2298.09C1307.54 2268.16 1308.06 2257.14 1310.16 2243.49L1265.01 2243.49C1267.11 2256.61 1268.16 2269.21 1268.16 2297.04L1268.16 2623.06C1268.16 2651.41 1267.11 2664.01 1265.01 2678.19L1310.16 2678.19Z" fill-rule="evenodd"/>
</g>
<g fill="#000000" opacity="1" stroke="none">
<path clip-path="url(#TextBounds_11)" d="M393.384 448.887C418.884 448.887 427.509 449.262 441.009 450.762L441.009 406.137C426.759 408.387 418.134 408.762 392.634 408.762L173.259 408.762C147.384 408.762 139.134 408.387 124.884 406.137L124.884 450.762C138.384 449.262 147.009 448.887 172.509 448.887L264.009 448.887C262.884 478.137 257.259 502.512 247.509 519.762C231.759 548.637 203.634 568.512 158.634 582.387C174.759 598.137 179.634 604.512 189.009 623.637C239.634 603.387 267.009 582.762 286.884 549.762C303.009 523.137 311.259 492.012 313.134 448.887L393.384 448.887ZM162.759 357.387C175.134 355.887 184.134 355.512 210.384 355.512L355.884 355.512C382.134 355.512 391.134 355.887 403.509 357.387L403.509 311.637C389.634 313.887 382.134 314.262 355.134 314.262L211.134 314.262C184.134 314.262 176.634 313.887 162.759 311.637L162.759 357.387Z" fill-rule="evenodd"/>
<path clip-path="url(#TextBounds_11)" d="M241.509 931.887L171.759 942.762C156.009 945.012 144.009 946.512 130.509 946.887L138.009 993.012C148.134 990.012 162.009 987.387 179.259 984.387L249.009 973.512L260.259 1035.01L169.134 1049.64C153.009 1052.26 142.134 1053.39 129.384 1053.39L136.884 1099.51C150.384 1095.76 157.134 1094.26 175.134 1091.26L267.759 1076.64L281.259 1150.51C284.259 1168.14 285.759 1178.64 286.134 1189.89L336.384 1180.89C332.259 1168.14 331.884 1167.01 327.384 1142.26L313.884 1069.51L403.134 1055.26C410.634 1054.14 415.509 1053.39 418.134 1053.01C420.009 1052.64 421.884 1052.26 424.134 1052.26C432.009 1050.76 433.509 1050.76 441.384 1050.39L433.134 1005.39C423.009 1008.39 409.884 1011.39 394.134 1014.01L306.009 1027.89L294.759 966.387L373.884 954.012C399.759 949.887 399.759 949.887 409.884 949.137L402.009 904.137C392.259 907.512 384.384 909.387 366.009 912.387L286.884 924.762L280.884 892.137C278.259 877.512 276.759 866.637 276.384 856.887L226.884 864.762C231.009 875.262 232.509 881.637 235.884 900.012L241.509 931.887Z" fill-rule="evenodd"/>
<path clip-path="url(#TextBounds_11)" d="M445.509 1700.26C400.134 1656.39 400.134 1656.39 390.759 1648.14C365.259 1625.26 345.009 1609.51 321.384 1593.76C344.259 1563.01 362.634 1530.39 379.884 1490.26C384.009 1480.89 387.009 1475.64 391.884 1470.01L367.134 1444.51C357.759 1447.89 354.759 1448.26 333.759 1448.64L201.759 1450.51C197.259 1450.51 194.259 1450.51 192.759 1450.51C177.384 1450.51 170.259 1450.14 159.759 1448.26L161.259 1496.26C174.009 1494.39 184.134 1493.64 202.134 1493.26C320.259 1491.39 320.259 1491.39 326.259 1491.01L322.134 1500.76C297.759 1559.26 252.759 1613.64 196.134 1653.39C168.009 1673.26 150.009 1683.39 121.134 1694.64C136.509 1710.76 141.009 1716.76 151.509 1736.26C208.884 1708.14 252.009 1675.14 294.384 1627.89C335.259 1659.01 378.384 1701.01 409.509 1739.26L445.509 1700.26Z" fill-rule="evenodd"/>
<path clip-path="url(#TextBounds_11)" d="M246.384 2306.26C245.259 2293.89 244.884 2284.14 244.884 2264.64L244.884 2165.64C244.884 2155.14 244.509 2150.64 243.384 2140.14C246.384 2142.01 247.509 2142.39 256.134 2146.51C318.759 2175.39 357.759 2196.76 388.884 2218.14L415.134 2173.89C355.134 2140.14 296.259 2112.76 244.884 2094.76L244.884 2025.01C244.884 2001.76 244.884 1996.89 246.384 1985.64L195.009 1985.64C196.509 1995.76 197.259 2005.51 197.259 2023.89L197.259 2264.26C197.259 2284.14 196.884 2294.26 195.009 2306.26L246.384 2306.26Z" fill-rule="evenodd"/>
</g>
</g>
<g id="レイヤー-1" vectornator:layerName="レイヤー 1">
<path d="M1049.02 248.072L969.252 263.153" fill="none" fill-rule="evenodd" opacity="1" stroke="#50b4bd" stroke-linecap="round" stroke-linejoin="round" stroke-width="41.5116"/>
<path d="M975.303 129.074L923.569 191.637" fill="none" fill-rule="evenodd" opacity="1" stroke="#50b4bd" stroke-linecap="round" stroke-linejoin="round" stroke-width="41.5116"/>
<path d="M850.844 77.3679L848.442 158.514" fill="none" fill-rule="evenodd" opacity="1" stroke="#50b4bd" stroke-linecap="round" stroke-linejoin="round" stroke-width="41.5116"/>
</g>
</svg>
