<?xml version="1.0" encoding="UTF-8" standalone="no"?>
<!DOCTYPE svg PUBLIC "-//W3C//DTD SVG 1.1//EN" "http://www.w3.org/Graphics/SVG/1.1/DTD/svg11.dtd">

<!-- Created with Vectornator (http://vectornator.io/) -->
<svg height="100%" stroke-miterlimit="10" style="fill-rule:nonzero;clip-rule:evenodd;stroke-linecap:round;stroke-linejoin:round;" version="1.1" viewBox="0 0 1100 1100" width="100%" xml:space="preserve" xmlns="http://www.w3.org/2000/svg" xmlns:vectornator="http://vectornator.io" xmlns:xlink="http://www.w3.org/1999/xlink">
<metadata>
<vectornator:setting key="IsTimeLapseWatermarkDisabled" value="false"/>
<vectornator:setting key="UndoHistoryDisabled" value="true"/>
<vectornator:setting key="VNDimensionsVisible" value="true"/>
<vectornator:setting key="VNSnapToGuides" value="true"/>
<vectornator:setting key="WDCMYKEnabledKey" value="false"/>
<vectornator:setting key="WDDisplayWhiteBackground" value="false"/>
<vectornator:setting key="WDDynamicGuides" value="false"/>
<vectornator:setting key="WDGuidesVisible" value="true"/>
<vectornator:setting key="WDIsolateActiveLayer" value="false"/>
<vectornator:setting key="WDOutlineMode" value="false"/>
<vectornator:setting key="WDRulersVisible" value="true"/>
<vectornator:setting key="WDSnapToEdges" value="false"/>
<vectornator:setting key="WDSnapToGrid" value="false"/>
<vectornator:setting key="WDSnapToPoints" value="false"/>
<vectornator:setting key="WDUnits" value="Pixels"/>
</metadata>
<defs>
<clipPath id="TextBounds">
<rect height="1144.69" width="1544.6" x="19.9248" y="92.2532"/>
</clipPath>
<clipPath id="TextBounds_2">
<rect height="1.08475" width="382.127" x="408.829" y="758.279"/>
</clipPath>
<clipPath id="TextBounds_3">
<rect height="7.4433" width="728.811" x="1090.9" y="44.8691"/>
</clipPath>
<clipPath id="TextBounds_4">
<rect height="0.384919" width="262.136" x="76.9172" y="479.342"/>
</clipPath>
<clipPath id="TextBounds_5">
<rect height="1.53684" width="730.709" x="1145.45" y="418.704"/>
</clipPath>
<clipPath id="TextBounds_6">
<rect height="3.07367" width="178.556" x="-201.922" y="523.209"/>
</clipPath>
<clipPath id="TextBounds_7">
<rect height="15.3684" width="210.72" x="-123.434" y="238.895"/>
</clipPath>
<clipPath id="TextBounds_8">
<rect height="801.96" width="1112.58" x="134.01" y="90.0891"/>
</clipPath>
<clipPath id="TextBounds_9">
<rect height="1.08475" width="382.127" x="408.829" y="758.279"/>
</clipPath>
<clipPath id="TextBounds_10">
<rect height="7.4433" width="728.811" x="1090.9" y="44.8691"/>
</clipPath>
<clipPath id="TextBounds_11">
<rect height="0.384919" width="262.136" x="76.9172" y="479.342"/>
</clipPath>
</defs>
<g id="レイヤー-1-" vectornator:layerName="レイヤー 1 ">
<g fill="#000000" opacity="1" stroke="#50b4bd" stroke-linecap="round" stroke-linejoin="round" stroke-width="75.5083">
<path clip-path="url(#TextBounds)" d="M208.905 654.693C191.131 654.693 176.941 648.243 166.335 635.343C155.728 622.443 150.425 605.53 150.425 584.603C150.425 561.67 155.728 539.955 166.335 519.458C176.941 498.962 191.06 482.478 208.69 470.008C226.32 457.538 245.025 451.303 264.805 451.303C271.111 451.303 275.34 452.522 277.49 454.958C279.64 457.395 281.431 461.767 282.865 468.073C288.885 466.927 295.191 466.353 301.785 466.353C315.831 466.353 322.855 471.37 322.855 481.403C322.855 487.423 320.705 501.757 316.405 524.403C309.811 557.37 306.515 580.303 306.515 593.203C306.515 597.503 307.59 600.943 309.74 603.523C311.89 606.103 314.685 607.393 318.125 607.393C323.571 607.393 330.165 603.882 337.905 596.858C345.645 589.835 356.108 578.44 369.295 562.673C372.735 558.66 376.605 556.653 380.905 556.653C384.631 556.653 387.57 558.373 389.72 561.813C391.87 565.253 392.945 569.983 392.945 576.003C392.945 587.47 390.221 596.357 384.775 602.663C373.021 617.283 360.551 629.61 347.365 639.643C334.178 649.677 321.421 654.693 309.095 654.693C299.635 654.693 290.963 651.468 283.08 645.018C275.196 638.568 269.248 629.753 265.235 618.573C250.328 642.653 231.551 654.693 208.905 654.693ZM224.385 611.263C230.691 611.263 236.711 607.537 242.445 600.083C248.178 592.63 252.335 582.74 254.915 570.413L270.825 491.293C258.785 491.58 247.676 496.095 237.5 504.838C227.323 513.582 219.225 525.12 213.205 539.453C207.185 553.787 204.175 568.98 204.175 585.033C204.175 593.92 205.966 600.513 209.55 604.813C213.133 609.113 218.078 611.263 224.385 611.263Z" fill-rule="evenodd"/>
<path clip-path="url(#TextBounds)" d="M521.085 556.653C524.811 556.653 527.75 558.373 529.9 561.813C532.05 565.253 533.125 569.983 533.125 576.003C533.125 587.47 530.401 596.357 524.955 602.663C512.628 617.857 499.226 630.327 484.75 640.073C470.273 649.82 453.861 654.693 435.515 654.693C410.288 654.693 391.583 643.227 379.4 620.293C367.216 597.36 361.125 567.69 361.125 531.283C361.125 496.31 365.64 456.463 374.67 411.743C383.7 367.023 397.03 328.61 414.66 296.503C432.29 264.397 453.288 248.343 477.655 248.343C491.415 248.343 502.236 254.722 510.12 267.478C518.003 280.235 521.945 298.51 521.945 322.303C521.945 356.417 512.485 395.977 493.565 440.983C474.645 485.99 448.988 530.567 416.595 574.713C418.601 586.467 421.898 594.852 426.485 599.868C431.071 604.885 437.091 607.393 444.545 607.393C456.298 607.393 466.618 604.025 475.505 597.288C484.391 590.552 495.715 579.013 509.475 562.673C512.915 558.66 516.785 556.653 521.085 556.653ZM468.195 290.913C461.601 290.913 454.148 302.81 445.835 326.603C437.521 350.397 430.211 379.923 423.905 415.183C417.598 450.443 414.158 484.27 413.585 516.663C433.938 483.123 450.135 449.512 462.175 415.828C474.215 382.145 480.235 351.4 480.235 323.593C480.235 301.807 476.221 290.913 468.195 290.913Z" fill-rule="evenodd"/>
<path clip-path="url(#TextBounds)" d="M718.455 557.513C722.181 557.513 725.12 559.305 727.27 562.888C729.42 566.472 730.495 570.987 730.495 576.433C730.495 583.027 729.491 588.187 727.485 591.913C725.478 595.64 722.325 598.937 718.025 601.803C693.371 618.43 675.311 630.757 663.845 638.783L636.325 657.273C625.431 716.613 611.17 763.268 593.54 797.238C575.91 831.208 553.478 848.193 526.245 848.193C511.625 848.193 499.728 843.678 490.555 834.648C481.381 825.618 476.795 813.793 476.795 799.173C476.795 778.82 484.821 756.962 500.875 733.598C516.928 710.235 547.028 681.497 591.175 647.383L593.755 630.613C588.881 638.353 582.503 644.302 574.62 648.458C566.736 652.615 558.925 654.693 551.185 654.693C533.411 654.693 519.221 648.243 508.615 635.343C498.008 622.443 492.705 605.53 492.705 584.603C492.705 561.67 498.008 539.955 508.615 519.458C519.221 498.962 533.34 482.478 550.97 470.008C568.6 457.538 587.305 451.303 607.085 451.303C613.391 451.303 617.62 452.522 619.77 454.958C621.92 457.395 623.711 461.767 625.145 468.073C630.591 466.927 636.898 466.353 644.065 466.353C651.231 466.353 656.32 467.428 659.33 469.578C662.34 471.728 663.845 475.957 663.845 482.263C663.845 485.703 663.701 488.427 663.415 490.433C662.268 499.32 658.685 521.823 652.665 557.943C651.518 564.823 650.3 572.348 649.01 580.518C647.72 588.688 646.358 597.36 644.925 606.533C666.998 589.333 688.211 574.14 708.565 560.953C712.291 558.66 715.588 557.513 718.455 557.513ZM566.665 611.263C573.258 611.263 579.565 607.25 585.585 599.223C591.605 591.197 595.905 579.73 598.485 564.823L612.245 491.293C600.491 491.58 589.598 496.095 579.565 504.838C569.531 513.582 561.505 525.12 555.485 539.453C549.465 553.787 546.455 568.98 546.455 585.033C546.455 593.92 548.246 600.513 551.83 604.813C555.413 609.113 560.358 611.263 566.665 611.263ZM530.975 806.483C538.141 806.483 546.24 797.883 555.27 780.683C564.3 763.483 572.971 736.107 581.285 698.553C559.211 717.473 543.301 734.53 533.555 749.723C523.808 764.917 518.935 778.247 518.935 789.713C518.935 794.587 519.866 798.6 521.73 801.753C523.593 804.907 526.675 806.483 530.975 806.483Z" fill-rule="evenodd"/>
<path clip-path="url(#TextBounds)" d="M776.935 654.693C760.021 654.693 745.616 650.465 733.72 642.008C721.823 633.552 712.865 622.443 706.845 608.683C700.825 594.923 697.815 580.16 697.815 564.393C697.815 542.607 701.9 523.185 710.07 506.128C718.24 489.072 729.348 475.742 743.395 466.138C757.441 456.535 773.208 451.733 790.695 451.733C807.608 451.733 822.085 455.962 834.125 464.418C846.165 472.875 855.195 483.983 861.215 497.743C867.235 511.503 870.245 526.267 870.245 542.033C870.245 563.82 866.088 583.242 857.775 600.298C849.461 617.355 838.21 630.685 824.02 640.288C809.83 649.892 794.135 654.693 776.935 654.693ZM781.665 608.253C791.411 608.253 799.653 602.95 806.39 592.343C813.126 581.737 816.495 566.257 816.495 545.903C816.495 530.137 813.628 518.24 807.895 510.213C802.161 502.187 795.281 498.173 787.255 498.173C776.935 498.173 768.406 503.405 761.67 513.868C754.933 524.332 751.565 539.883 751.565 560.523C751.565 576.863 754.431 588.903 760.165 596.643C765.898 604.383 773.065 608.253 781.665 608.253Z" fill-rule="evenodd"/>
</g>
<g fill="#000000" opacity="0.251923" stroke="none">
<path clip-path="url(#TextBounds_2)" d="M670.433 904.567C687.489 904.567 697.001 904.895 708.153 906.207L708.153 881.935C696.673 883.575 688.801 883.903 670.105 883.903L478.225 883.903C459.529 883.903 451.657 883.575 440.177 881.935L440.177 906.207C451.329 904.895 460.841 904.567 477.897 904.567L566.785 904.567C566.129 930.151 561.209 956.063 553.665 972.463C540.217 1002.31 513.649 1023.3 470.681 1037.08C478.881 1044.95 481.505 1048.56 486.097 1058.4C512.993 1047.57 529.393 1038.39 543.825 1025.93C568.753 1004.93 582.529 978.039 588.105 939.335C590.073 926.543 591.385 914.407 591.713 904.567L670.433 904.567ZM473.305 825.519C483.145 824.207 491.673 823.879 510.697 823.879L638.945 823.879C657.969 823.879 666.497 824.207 676.337 825.519L676.337 800.591C665.513 802.559 658.953 802.887 638.617 802.887L511.025 802.887C490.689 802.887 484.129 802.559 473.305 800.591L473.305 825.519Z" fill-rule="evenodd"/>
<path clip-path="url(#TextBounds_2)" d="M549.729 1342.45L482.817 1352.94C468.057 1355.24 459.529 1355.89 448.705 1356.22L453.297 1381.15C461.825 1378.53 472.649 1376.23 486.097 1373.93L553.665 1363.44L565.473 1429.69L478.225 1443.8C464.777 1446.09 456.577 1446.75 445.753 1446.75L450.017 1471.68C460.841 1468.4 462.809 1468.07 481.505 1465.12L569.409 1451.01L582.857 1524.49C585.153 1538.92 586.465 1547.12 586.793 1555.97L613.033 1551.05C609.753 1540.89 608.769 1536.95 605.817 1519.89L592.369 1447.41L674.697 1434.29C676.993 1433.96 678.633 1433.63 682.241 1432.97C687.817 1431.99 691.097 1431.33 692.409 1431.33C698.313 1430.35 700.281 1430.02 706.841 1429.69L702.249 1405.42C694.049 1408.37 684.537 1410.34 669.777 1412.97L588.433 1426.09L575.969 1359.83L650.425 1348.35C670.761 1345.07 670.761 1345.07 679.617 1344.09L675.025 1320.47C667.481 1323.09 660.593 1324.73 646.161 1327.03L572.033 1338.51L565.473 1302.43C562.849 1288.65 562.193 1282.42 561.865 1274.55L535.953 1278.81C539.233 1286.69 540.873 1292.92 543.169 1306.69L549.729 1342.45Z" fill-rule="evenodd"/>
<path clip-path="url(#TextBounds_2)" d="M705.857 2013.21C668.465 1973.52 639.601 1947.61 596.633 1914.81C616.969 1889.55 632.385 1863.64 650.753 1822.97C654.361 1814.77 656.657 1810.83 659.937 1806.89L646.161 1792.79C640.585 1794.76 636.649 1795.09 625.169 1795.41L508.073 1796.73C503.481 1796.73 500.529 1796.73 499.545 1796.73C488.393 1796.73 482.489 1796.4 473.633 1795.09L474.289 1821.65C483.801 1820.01 493.313 1819.36 508.073 1819.03L617.625 1817.39C621.561 1817.39 622.545 1817.39 625.497 1817.06C625.169 1818.05 625.169 1818.37 624.513 1819.36C623.857 1821 623.529 1821.33 622.873 1823.29C598.929 1880.69 558.257 1932.52 505.777 1971.22C480.521 1989.92 464.449 1998.77 439.193 2008.94C447.393 2017.14 450.017 2020.75 455.265 2030.59C479.537 2018.45 496.921 2007.63 519.553 1991.23C543.169 1973.85 559.241 1958.76 582.201 1932.52C624.185 1964.99 661.249 2000.74 687.161 2033.87L705.857 2013.21Z" fill-rule="evenodd"/>
<path clip-path="url(#TextBounds_2)" d="M535.625 2533.09C534.313 2523.9 533.985 2516.69 533.985 2498.32L533.985 2399.59C533.985 2391.39 533.657 2386.8 532.673 2380.24L533.329 2379.91C536.281 2382.21 538.577 2383.52 543.497 2385.49C589.745 2404.51 635.009 2428.78 665.841 2450.43L679.945 2426.16C622.545 2393.03 584.497 2374.99 533.985 2356.95L533.985 2295.61C533.985 2276.92 534.313 2270.03 535.625 2261.5L507.417 2261.5C508.729 2269.7 509.385 2277.57 509.385 2294.96L509.385 2498.65C509.385 2516.36 508.729 2524.23 507.417 2533.09L535.625 2533.09Z" fill-rule="evenodd"/>
</g>
<g fill="#000000" opacity="1" stroke="none">
<path clip-path="url(#TextBounds_3)" d="M1508.72 279.019C1536.02 279.019 1551.25 279.544 1569.1 281.644L1569.1 242.794C1550.72 245.419 1538.12 245.944 1508.2 245.944L1201.07 245.944C1171.15 245.944 1158.55 245.419 1140.17 242.794L1140.17 281.644C1158.02 279.544 1173.25 279.019 1200.55 279.019L1342.82 279.019C1341.77 319.969 1333.9 361.444 1321.82 387.694C1300.3 435.469 1257.77 469.069 1189 491.119C1202.12 503.719 1206.32 509.494 1213.67 525.244C1256.72 507.919 1282.97 493.219 1306.07 473.269C1345.97 439.669 1368.02 396.619 1376.95 334.669C1380.1 314.194 1382.2 294.769 1382.72 279.019L1508.72 279.019ZM1193.2 152.494C1208.95 150.394 1222.6 149.869 1253.05 149.869L1458.32 149.869C1488.77 149.869 1502.42 150.394 1518.17 152.494L1518.17 112.594C1500.85 115.744 1490.35 116.269 1457.8 116.269L1253.57 116.269C1221.02 116.269 1210.52 115.744 1193.2 112.594L1193.2 152.494Z" fill-rule="evenodd"/>
<path clip-path="url(#TextBounds_3)" d="M1315.52 979.894L1208.42 996.694C1184.8 1000.37 1171.15 1001.42 1153.82 1001.94L1161.17 1041.84C1174.82 1037.64 1192.15 1033.97 1213.67 1030.29L1321.82 1013.49L1340.72 1119.54L1201.07 1142.12C1179.55 1145.79 1166.42 1146.84 1149.1 1146.84L1155.92 1186.74C1173.25 1181.49 1176.4 1180.97 1206.32 1176.24L1347.02 1153.67L1368.55 1271.27C1372.22 1294.37 1374.32 1307.49 1374.85 1321.67L1416.85 1313.79C1411.6 1297.52 1410.02 1291.22 1405.3 1263.92L1383.77 1147.89L1515.55 1126.89C1519.22 1126.37 1521.85 1125.84 1527.62 1124.79C1536.55 1123.22 1541.8 1122.17 1543.9 1122.17C1553.35 1120.59 1556.5 1120.07 1567 1119.54L1559.65 1080.69C1546.52 1085.42 1531.3 1088.57 1507.67 1092.77L1377.47 1113.77L1357.52 1007.72L1476.7 989.344C1509.25 984.094 1509.25 984.094 1523.42 982.519L1516.07 944.719C1504 948.919 1492.97 951.544 1469.87 955.219L1351.22 973.594L1340.72 915.844C1336.52 893.794 1335.47 883.819 1334.95 871.219L1293.47 878.044C1298.72 890.644 1301.35 900.619 1305.02 922.669L1315.52 979.894Z" fill-rule="evenodd"/>
<path clip-path="url(#TextBounds_3)" d="M1565.42 2053.52C1505.57 1989.99 1459.37 1948.52 1390.6 1896.02C1423.15 1855.59 1447.82 1814.12 1477.22 1749.02C1483 1735.89 1486.67 1729.59 1491.92 1723.29L1469.87 1700.72C1460.95 1703.87 1454.65 1704.39 1436.27 1704.92L1248.85 1707.02C1241.5 1707.02 1236.77 1707.02 1235.2 1707.02C1217.35 1707.02 1207.9 1706.49 1193.72 1704.39L1194.77 1746.92C1210 1744.29 1225.22 1743.24 1248.85 1742.72L1424.2 1740.09C1430.5 1740.09 1432.07 1740.09 1436.8 1739.57C1436.27 1741.14 1436.27 1741.67 1435.22 1743.24C1434.17 1745.87 1433.65 1746.39 1432.6 1749.54C1394.27 1841.42 1329.17 1924.37 1245.17 1986.32C1204.75 2016.24 1179.02 2030.42 1138.6 2046.69C1151.72 2059.82 1155.92 2065.59 1164.32 2081.34C1203.17 2061.92 1231 2044.59 1267.22 2018.34C1305.02 1990.52 1330.75 1966.37 1367.5 1924.37C1434.7 1976.34 1494.02 2033.57 1535.5 2086.59L1565.42 2053.52Z" fill-rule="evenodd"/>
<path clip-path="url(#TextBounds_3)" d="M1292.95 2885.64C1290.85 2870.94 1290.32 2859.39 1290.32 2829.99L1290.32 2671.97C1290.32 2658.84 1289.8 2651.49 1288.22 2640.99L1289.27 2640.47C1294 2644.14 1297.67 2646.24 1305.55 2649.39C1379.57 2679.84 1452.02 2718.69 1501.37 2753.34L1523.95 2714.49C1432.07 2661.47 1371.17 2632.59 1290.32 2603.72L1290.32 2505.54C1290.32 2475.62 1290.85 2464.59 1292.95 2450.94L1247.8 2450.94C1249.9 2464.07 1250.95 2476.67 1250.95 2504.49L1250.95 2830.52C1250.95 2858.87 1249.9 2871.47 1247.8 2885.64L1292.95 2885.64Z" fill-rule="evenodd"/>
</g>
<g fill="#000000" opacity="1" stroke="none">
<path clip-path="url(#TextBounds_4)" d="M376.167 656.342C401.667 656.342 410.292 656.717 423.792 658.217L423.792 613.592C409.542 615.842 400.917 616.217 375.417 616.217L156.042 616.217C130.167 616.217 121.917 615.842 107.667 613.592L107.667 658.217C121.167 656.717 129.792 656.342 155.292 656.342L246.792 656.342C245.667 685.592 240.042 709.967 230.292 727.217C214.542 756.092 186.417 775.967 141.417 789.842C157.542 805.592 162.417 811.967 171.792 831.092C222.417 810.842 249.792 790.217 269.667 757.217C285.792 730.592 294.042 699.467 295.917 656.342L376.167 656.342ZM145.542 564.842C157.917 563.342 166.917 562.967 193.167 562.967L338.667 562.967C364.917 562.967 373.917 563.342 386.292 564.842L386.292 519.092C372.417 521.342 364.917 521.717 337.917 521.717L193.917 521.717C166.917 521.717 159.417 521.342 145.542 519.092L145.542 564.842Z" fill-rule="evenodd"/>
<path clip-path="url(#TextBounds_4)" d="M224.292 1139.34L154.542 1150.22C138.792 1152.47 126.792 1153.97 113.292 1154.34L120.792 1200.47C130.917 1197.47 144.792 1194.84 162.042 1191.84L231.792 1180.97L243.042 1242.47L151.917 1257.09C135.792 1259.72 124.917 1260.84 112.167 1260.84L119.667 1306.97C133.167 1303.22 139.917 1301.72 157.917 1298.72L250.542 1284.09L264.042 1357.97C267.042 1375.59 268.542 1386.09 268.917 1397.34L319.167 1388.34C315.042 1375.59 314.667 1374.47 310.167 1349.72L296.667 1276.97L385.917 1262.72C393.417 1261.59 398.292 1260.84 400.917 1260.47C402.792 1260.09 404.667 1259.72 406.917 1259.72C414.792 1258.22 416.292 1258.22 424.167 1257.84L415.917 1212.84C405.792 1215.84 392.667 1218.84 376.917 1221.47L288.792 1235.34L277.542 1173.84L356.667 1161.47C382.542 1157.34 382.542 1157.34 392.667 1156.59L384.792 1111.59C375.042 1114.97 367.167 1116.84 348.792 1119.84L269.667 1132.22L263.667 1099.59C261.042 1084.97 259.542 1074.09 259.167 1064.34L209.667 1072.22C213.792 1082.72 215.292 1089.09 218.667 1107.47L224.292 1139.34Z" fill-rule="evenodd"/>
<path clip-path="url(#TextBounds_4)" d="M428.292 1907.72C382.917 1863.84 382.917 1863.84 373.542 1855.59C348.042 1832.72 327.792 1816.97 304.167 1801.22C327.042 1770.47 345.417 1737.84 362.667 1697.72C366.792 1688.34 369.792 1683.09 374.667 1677.47L349.917 1651.97C340.542 1655.34 337.542 1655.72 316.542 1656.09L184.542 1657.97C180.042 1657.97 177.042 1657.97 175.542 1657.97C160.167 1657.97 153.042 1657.59 142.542 1655.72L144.042 1703.72C156.792 1701.84 166.917 1701.09 184.917 1700.72C303.042 1698.84 303.042 1698.84 309.042 1698.47L304.917 1708.22C280.542 1766.72 235.542 1821.09 178.917 1860.84C150.792 1880.72 132.792 1890.84 103.917 1902.09C119.292 1918.22 123.792 1924.22 134.292 1943.72C191.667 1915.59 234.792 1882.59 277.167 1835.34C318.042 1866.47 361.167 1908.47 392.292 1946.72L428.292 1907.72Z" fill-rule="evenodd"/>
<path clip-path="url(#TextBounds_4)" d="M229.167 2513.72C228.042 2501.34 227.667 2491.59 227.667 2472.09L227.667 2373.09C227.667 2362.59 227.292 2358.09 226.167 2347.59C229.167 2349.47 230.292 2349.84 238.917 2353.97C301.542 2382.84 340.542 2404.22 371.667 2425.59L397.917 2381.34C337.917 2347.59 279.042 2320.22 227.667 2302.22L227.667 2232.47C227.667 2209.22 227.667 2204.34 229.167 2193.09L177.792 2193.09C179.292 2203.22 180.042 2212.97 180.042 2231.34L180.042 2471.72C180.042 2491.59 179.667 2501.72 177.792 2513.72L229.167 2513.72Z" fill-rule="evenodd"/>
</g>
<g fill="#000000" opacity="1" stroke="none">
<path clip-path="url(#TextBounds_5)" d="M1515.7 626.094C1539.88 626.094 1553.36 626.559 1569.17 628.419L1569.17 594.009C1552.9 596.334 1541.74 596.799 1515.23 596.799L1243.21 596.799C1216.7 596.799 1205.54 596.334 1189.27 594.009L1189.27 628.419C1205.08 626.559 1218.56 626.094 1242.74 626.094L1368.76 626.094C1367.83 662.364 1360.85 699.099 1350.16 722.349C1331.09 764.664 1293.43 794.424 1232.51 813.954C1244.14 825.114 1247.86 830.229 1254.37 844.179C1292.5 828.834 1315.75 815.814 1336.21 798.144C1371.55 768.384 1391.08 730.254 1398.98 675.384C1401.77 657.249 1403.63 640.044 1404.1 626.094L1515.7 626.094ZM1236.23 514.029C1250.18 512.169 1262.27 511.704 1289.24 511.704L1471.06 511.704C1498.03 511.704 1510.12 512.169 1524.07 514.029L1524.07 478.689C1508.72 481.479 1499.42 481.944 1470.59 481.944L1289.71 481.944C1260.88 481.944 1251.58 481.479 1236.23 478.689L1236.23 514.029Z" fill-rule="evenodd"/>
<path clip-path="url(#TextBounds_5)" d="M1344.58 1246.87L1249.72 1261.75C1228.79 1265 1216.7 1265.93 1201.36 1266.4L1207.87 1301.74C1219.96 1298.02 1235.3 1294.76 1254.37 1291.51L1350.16 1276.63L1366.9 1370.56L1243.21 1390.55C1224.14 1393.81 1212.52 1394.74 1197.17 1394.74L1203.22 1430.08C1218.56 1425.43 1221.35 1424.96 1247.86 1420.78L1372.48 1400.78L1391.54 1504.94C1394.8 1525.4 1396.66 1537.03 1397.12 1549.58L1434.32 1542.61C1429.67 1528.19 1428.28 1522.61 1424.09 1498.43L1405.03 1395.67L1521.74 1377.07C1525 1376.6 1527.32 1376.14 1532.44 1375.21C1540.34 1373.81 1544.99 1372.88 1546.85 1372.88C1555.22 1371.49 1558.01 1371.02 1567.31 1370.56L1560.8 1336.15C1549.18 1340.33 1535.69 1343.12 1514.77 1346.84L1399.45 1365.44L1381.78 1271.51L1487.33 1255.24C1516.16 1250.59 1516.16 1250.59 1528.72 1249.19L1522.21 1215.71C1511.51 1219.43 1501.75 1221.76 1481.29 1225.01L1376.2 1241.29L1366.9 1190.14C1363.18 1170.61 1362.25 1161.77 1361.78 1150.61L1325.05 1156.66C1329.7 1167.82 1332.02 1176.65 1335.28 1196.18L1344.58 1246.87Z" fill-rule="evenodd"/>
<path clip-path="url(#TextBounds_5)" d="M1565.92 2197.79C1512.91 2141.53 1471.99 2104.79 1411.07 2058.29C1439.9 2022.49 1461.76 1985.75 1487.8 1928.09C1492.91 1916.47 1496.17 1910.89 1500.82 1905.31L1481.29 1885.31C1473.38 1888.1 1467.8 1888.57 1451.53 1889.03L1285.52 1890.89C1279.01 1890.89 1274.83 1890.89 1273.43 1890.89C1257.62 1890.89 1249.25 1890.43 1236.7 1888.57L1237.63 1926.23C1251.11 1923.91 1264.6 1922.98 1285.52 1922.51L1440.83 1920.19C1446.41 1920.19 1447.81 1920.19 1451.99 1919.72C1451.53 1921.12 1451.53 1921.58 1450.6 1922.98C1449.67 1925.3 1449.2 1925.77 1448.27 1928.56C1414.33 2009.93 1356.67 2083.4 1282.27 2138.27C1246.46 2164.78 1223.68 2177.33 1187.87 2191.75C1199.5 2203.37 1203.22 2208.49 1210.66 2222.44C1245.07 2205.23 1269.71 2189.89 1301.8 2166.64C1335.28 2141.99 1358.06 2120.6 1390.61 2083.4C1450.13 2129.44 1502.68 2180.12 1539.41 2227.09L1565.92 2197.79Z" fill-rule="evenodd"/>
<path clip-path="url(#TextBounds_5)" d="M1324.58 2934.82C1322.72 2921.8 1322.26 2911.57 1322.26 2885.53L1322.26 2745.56C1322.26 2733.94 1321.79 2727.43 1320.4 2718.13L1321.33 2717.66C1325.51 2720.92 1328.77 2722.78 1335.74 2725.57C1401.31 2752.54 1465.48 2786.95 1509.19 2817.64L1529.18 2783.23C1447.81 2736.26 1393.87 2710.69 1322.26 2685.11L1322.26 2598.16C1322.26 2571.65 1322.72 2561.89 1324.58 2549.8L1284.59 2549.8C1286.45 2561.42 1287.38 2572.58 1287.38 2597.23L1287.38 2885.99C1287.38 2911.1 1286.45 2922.26 1284.59 2934.82L1324.58 2934.82Z" fill-rule="evenodd"/>
</g>
<g fill="#000000" opacity="1" stroke="none">
<path clip-path="url(#TextBounds_6)" d="M168.323 730.599C192.503 730.599 205.988 731.064 221.798 732.924L221.798 698.514C205.523 700.839 194.363 701.304 167.858 701.304L-104.167 701.304C-130.672 701.304-141.832 700.839-158.107 698.514L-158.107 732.924C-142.297 731.064-128.812 730.599-104.632 730.599L21.383 730.599C20.453 766.869 13.478 803.604 2.78295 826.854C-16.282 869.169-53.947 898.929-114.862 918.459C-103.237 929.619-99.517 934.734-93.007 948.684C-54.877 933.339-31.627 920.319-11.167 902.649C24.173 872.889 43.703 834.759 51.608 779.889C54.398 761.754 56.258 744.549 56.723 730.599L168.323 730.599ZM-111.142 618.534C-97.192 616.674-85.102 616.209-58.132 616.209L123.683 616.209C150.653 616.209 162.743 616.674 176.693 618.534L176.693 583.194C161.348 585.984 152.048 586.449 123.218 586.449L-57.667 586.449C-86.497 586.449-95.797 585.984-111.142 583.194L-111.142 618.534Z" fill-rule="evenodd"/>
<path clip-path="url(#TextBounds_6)" d="M-2.79705 1351.37L-97.657 1366.25C-118.582 1369.51-130.672 1370.44-146.017 1370.9L-139.507 1406.24C-127.417 1402.52-112.072 1399.27-93.007 1396.01L2.78295 1381.13L19.523 1475.06L-104.167 1495.06C-123.232 1498.31-134.857 1499.24-150.202 1499.24L-144.157 1534.58C-128.812 1529.93-126.022 1529.47-99.517 1525.28L25.103 1505.29L44.168 1609.45C47.423 1629.91 49.283 1641.53 49.748 1654.09L86.948 1647.11C82.298 1632.7 80.903 1627.12 76.718 1602.94L57.653 1500.17L174.368 1481.57C177.623 1481.11 179.948 1480.64 185.063 1479.71C192.968 1478.32 197.618 1477.39 199.478 1477.39C207.848 1475.99 210.638 1475.53 219.938 1475.06L213.428 1440.65C201.803 1444.84 188.318 1447.63 167.393 1451.35L52.073 1469.95L34.403 1376.02L139.958 1359.74C168.788 1355.09 168.788 1355.09 181.343 1353.7L174.833 1320.22C164.138 1323.94 154.373 1326.26 133.913 1329.52L28.823 1345.79L19.523 1294.64C15.803 1275.11 14.873 1266.28 14.408 1255.12L-22.327 1261.16C-17.677 1272.32-15.352 1281.16-12.097 1300.69L-2.79705 1351.37Z" fill-rule="evenodd"/>
<path clip-path="url(#TextBounds_6)" d="M218.543 2302.3C165.533 2246.03 124.613 2209.3 63.698 2162.8C92.528 2126.99 114.383 2090.26 140.423 2032.6C145.538 2020.97 148.793 2015.39 153.443 2009.81L133.913 1989.82C126.008 1992.61 120.428 1993.07 104.153 1993.54L-61.852 1995.4C-68.362 1995.4-72.547 1995.4-73.942 1995.4C-89.752 1995.4-98.122 1994.93-110.677 1993.07L-109.747 2030.74C-96.262 2028.41-82.777 2027.48-61.852 2027.02L93.458 2024.69C99.038 2024.69 100.433 2024.69 104.618 2024.23C104.153 2025.62 104.153 2026.09 103.223 2027.48C102.293 2029.81 101.828 2030.27 100.898 2033.06C66.953 2114.44 9.29295 2187.91-65.107 2242.78C-100.912 2269.28-123.697 2281.84-159.502 2296.25C-147.877 2307.88-144.157 2312.99-136.717 2326.94C-102.307 2309.74-77.662 2294.39-45.577 2271.14C-12.097 2246.5 10.688 2225.11 43.238 2187.91C102.758 2233.94 155.303 2284.63 192.038 2331.59L218.543 2302.3Z" fill-rule="evenodd"/>
<path clip-path="url(#TextBounds_6)" d="M-22.792 3039.32C-24.652 3026.3-25.117 3016.07-25.117 2990.03L-25.117 2850.07C-25.117 2838.44-25.582 2831.93-26.977 2822.63L-26.047 2822.17C-21.862 2825.42-18.607 2827.28-11.632 2830.07C53.933 2857.04 118.103 2891.45 161.813 2922.14L181.808 2887.73C100.433 2840.77 46.493 2815.19-25.117 2789.62L-25.117 2702.66C-25.117 2676.16-24.652 2666.39-22.792 2654.3L-62.782 2654.3C-60.922 2665.93-59.992 2677.09-59.992 2701.73L-59.992 2990.5C-59.992 3015.61-60.922 3026.77-62.782 3039.32L-22.792 3039.32Z" fill-rule="evenodd"/>
</g>
<g fill="#000000" opacity="1" stroke="none">
<path clip-path="url(#TextBounds_7)" d="M246.811 446.285C270.991 446.285 284.476 446.75 300.286 448.61L300.286 414.2C284.011 416.525 272.851 416.99 246.346 416.99L-25.6792 416.99C-52.1842 416.99-63.3442 416.525-79.6192 414.2L-79.6192 448.61C-63.8092 446.75-50.3242 446.285-26.1442 446.285L99.8708 446.285C98.9408 482.555 91.9658 519.29 81.2708 542.54C62.2058 584.855 24.5408 614.615-36.3742 634.145C-24.7492 645.305-21.0292 650.42-14.5192 664.37C23.6108 649.025 46.8608 636.005 67.3208 618.335C102.661 588.575 122.191 550.445 130.096 495.575C132.886 477.44 134.746 460.235 135.211 446.285L246.811 446.285ZM-32.6542 334.22C-18.7042 332.36-6.61419 331.895 20.3558 331.895L202.171 331.895C229.141 331.895 241.231 332.36 255.181 334.22L255.181 298.88C239.836 301.67 230.536 302.135 201.706 302.135L20.8208 302.135C-8.00919 302.135-17.3092 301.67-32.6542 298.88L-32.6542 334.22Z" fill-rule="evenodd"/>
<path clip-path="url(#TextBounds_7)" d="M75.6908 1067.06L-19.1692 1081.94C-40.0942 1085.19-52.1842 1086.12-67.5292 1086.59L-61.0192 1121.93C-48.9292 1118.21-33.5842 1114.95-14.5192 1111.7L81.2708 1096.82L98.0108 1190.75L-25.6792 1210.74C-44.7442 1214-56.3692 1214.93-71.7142 1214.93L-65.6692 1250.27C-50.3242 1245.62-47.5342 1245.15-21.0292 1240.97L103.591 1220.97L122.656 1325.13C125.911 1345.59 127.771 1357.22 128.236 1369.77L165.436 1362.8C160.786 1348.38 159.391 1342.8 155.206 1318.62L136.141 1215.86L252.856 1197.26C256.111 1196.79 258.436 1196.33 263.551 1195.4C271.456 1194 276.106 1193.07 277.966 1193.07C286.336 1191.68 289.126 1191.21 298.426 1190.75L291.916 1156.34C280.291 1160.52 266.806 1163.31 245.881 1167.03L130.561 1185.63L112.891 1091.7L218.446 1075.43C247.276 1070.78 247.276 1070.78 259.831 1069.38L253.321 1035.9C242.626 1039.62 232.861 1041.95 212.401 1045.2L107.311 1061.48L98.0108 1010.33C94.2908 990.8 93.3608 981.965 92.8958 970.805L56.1608 976.85C60.8108 988.01 63.1358 996.845 66.3908 1016.37L75.6908 1067.06Z" fill-rule="evenodd"/>
<path clip-path="url(#TextBounds_7)" d="M297.031 2017.98C244.021 1961.72 203.101 1924.98 142.186 1878.48C171.016 1842.68 192.871 1805.94 218.911 1748.28C224.026 1736.66 227.281 1731.08 231.931 1725.5L212.401 1705.5C204.496 1708.29 198.916 1708.76 182.641 1709.22L16.6358 1711.08C10.1258 1711.08 5.94081 1711.08 4.54581 1711.08C-11.2642 1711.08-19.6342 1710.62-32.1892 1708.76L-31.2592 1746.42C-17.7742 1744.1-4.28919 1743.17 16.6358 1742.7L171.946 1740.38C177.526 1740.38 178.921 1740.38 183.106 1739.91C182.641 1741.31 182.641 1741.77 181.711 1743.17C180.781 1745.49 180.316 1745.96 179.386 1748.75C145.441 1830.12 87.7808 1903.59 13.3808 1958.46C-22.4242 1984.97-45.2092 1997.52-81.0142 2011.94C-69.3892 2023.56-65.6692 2028.68-58.2292 2042.63C-23.8192 2025.42 0.825807 2010.08 32.9108 1986.83C66.3908 1962.18 89.1758 1940.79 121.726 1903.59C181.246 1949.63 233.791 2000.31 270.526 2047.28L297.031 2017.98Z" fill-rule="evenodd"/>
<path clip-path="url(#TextBounds_7)" d="M55.6958 2755.01C53.8358 2741.99 53.3708 2731.76 53.3708 2705.72L53.3708 2565.75C53.3708 2554.13 52.9058 2547.62 51.5108 2538.32L52.4408 2537.85C56.6258 2541.11 59.8808 2542.97 66.8558 2545.76C132.421 2572.73 196.591 2607.14 240.301 2637.83L260.296 2603.42C178.921 2556.45 124.981 2530.88 53.3708 2505.3L53.3708 2418.35C53.3708 2391.84 53.8358 2382.08 55.6958 2369.99L15.7058 2369.99C17.5658 2381.61 18.4958 2392.77 18.4958 2417.42L18.4958 2706.18C18.4958 2731.29 17.5658 2742.45 15.7058 2755.01L55.6958 2755.01Z" fill-rule="evenodd"/>
</g>
</g>
<g id="レイヤー-1--Copy" vectornator:layerName="レイヤー 1  Copy">
<g fill="#ffffff" opacity="1" stroke="none">
<path clip-path="url(#TextBounds_8)" d="M209.211 653.837C191.397 653.837 177.174 647.372 166.542 634.442C155.911 621.512 150.595 604.559 150.595 583.584C150.595 560.597 155.911 538.832 166.542 518.288C177.174 497.743 191.325 481.222 208.996 468.723C226.667 456.224 245.415 449.974 265.241 449.974C271.563 449.974 275.801 451.195 277.956 453.638C280.111 456.08 281.907 460.462 283.343 466.783C289.377 465.634 295.699 465.059 302.307 465.059C316.387 465.059 323.426 470.087 323.426 480.144C323.426 486.178 321.271 500.545 316.961 523.244C310.353 556.287 307.048 579.274 307.048 592.204C307.048 596.514 308.126 599.962 310.281 602.548C312.436 605.134 315.237 606.427 318.685 606.427C324.145 606.427 330.753 602.907 338.511 595.868C346.269 588.828 356.757 577.406 369.974 561.603C373.422 557.58 377.301 555.569 381.611 555.569C385.347 555.569 388.292 557.293 390.447 560.741C392.602 564.189 393.679 568.93 393.679 574.964C393.679 586.457 390.95 595.365 385.49 601.686C373.71 616.34 361.211 628.695 347.993 638.752C334.776 648.809 321.99 653.837 309.634 653.837C300.152 653.837 291.46 650.605 283.559 644.14C275.657 637.675 269.695 628.839 265.672 617.633C250.731 641.769 231.911 653.837 209.211 653.837ZM224.727 610.306C231.049 610.306 237.083 606.571 242.829 599.1C248.576 591.629 252.742 581.716 255.328 569.361L271.275 490.057C259.207 490.344 248.073 494.87 237.873 503.634C227.672 512.397 219.555 523.962 213.521 538.329C207.487 552.696 204.47 567.924 204.47 584.015C204.47 592.922 206.266 599.531 209.858 603.841C213.449 608.151 218.406 610.306 224.727 610.306Z" fill-rule="evenodd"/>
<path clip-path="url(#TextBounds_8)" d="M522.117 555.569C525.853 555.569 528.798 557.293 530.953 560.741C533.108 564.189 534.185 568.93 534.185 574.964C534.185 586.457 531.456 595.365 525.996 601.686C513.641 616.915 500.208 629.414 485.698 639.183C471.187 648.952 454.738 653.837 436.348 653.837C411.063 653.837 392.314 642.344 380.103 619.357C367.891 596.37 361.785 566.631 361.785 530.14C361.785 495.085 366.311 455.146 375.362 410.322C384.413 365.498 397.774 326.995 415.445 294.814C433.116 262.633 454.163 246.542 478.586 246.542C492.378 246.542 503.225 252.935 511.127 265.722C519.028 278.508 522.979 296.825 522.979 320.674C522.979 354.867 513.497 394.519 494.533 439.63C475.569 484.741 449.853 529.422 417.384 573.671C419.396 585.452 422.7 593.856 427.297 598.885C431.895 603.913 437.929 606.427 445.399 606.427C457.18 606.427 467.524 603.051 476.431 596.299C485.339 589.546 496.688 577.981 510.48 561.603C513.928 557.58 517.807 555.569 522.117 555.569ZM469.104 289.211C462.496 289.211 455.025 301.135 446.692 324.984C438.36 348.833 431.033 378.428 424.711 413.77C418.39 449.112 414.942 483.017 414.367 515.486C434.768 481.868 451.002 448.178 463.07 414.417C475.138 380.655 481.172 349.838 481.172 321.967C481.172 300.13 477.15 289.211 469.104 289.211Z" fill-rule="evenodd"/>
<path clip-path="url(#TextBounds_8)" d="M719.946 556.431C723.682 556.431 726.627 558.227 728.782 561.819C730.937 565.41 732.014 569.936 732.014 575.395C732.014 582.004 731.009 587.176 728.997 590.911C726.986 594.646 723.825 597.951 719.515 600.824C694.805 617.489 676.703 629.845 665.209 637.89L637.625 656.423C626.707 715.901 612.412 762.665 594.741 796.714C577.07 830.763 554.586 847.787 527.289 847.787C512.635 847.787 500.711 843.262 491.516 834.211C482.322 825.16 477.724 813.307 477.724 798.653C477.724 778.252 485.77 756.343 501.86 732.926C517.951 709.508 548.121 680.703 592.37 646.51L594.956 629.701C590.072 637.459 583.678 643.421 575.777 647.588C567.875 651.754 560.045 653.837 552.287 653.837C534.473 653.837 520.25 647.372 509.618 634.442C498.987 621.512 493.671 604.559 493.671 583.584C493.671 560.597 498.987 538.832 509.618 518.288C520.25 497.743 534.401 481.222 552.072 468.723C569.743 456.224 588.491 449.974 608.317 449.974C614.639 449.974 618.877 451.195 621.032 453.638C623.187 456.08 624.983 460.462 626.419 466.783C631.879 465.634 638.2 465.059 645.383 465.059C652.567 465.059 657.667 466.137 660.684 468.292C663.701 470.447 665.209 474.685 665.209 481.006C665.209 484.454 665.066 487.184 664.778 489.195C663.629 498.102 660.037 520.658 654.003 556.862C652.854 563.758 651.633 571.301 650.34 579.49C649.047 587.679 647.682 596.37 646.245 605.565C668.37 588.325 689.633 573.096 710.033 559.879C713.769 557.58 717.073 556.431 719.946 556.431ZM567.803 610.306C574.412 610.306 580.733 606.283 586.767 598.238C592.801 590.193 597.111 578.699 599.697 563.758L613.489 490.057C601.709 490.344 590.79 494.87 580.733 503.634C570.677 512.397 562.631 523.962 556.597 538.329C550.563 552.696 547.546 567.924 547.546 584.015C547.546 592.922 549.342 599.531 552.934 603.841C556.525 608.151 561.482 610.306 567.803 610.306ZM532.03 805.98C539.214 805.98 547.331 797.36 556.382 780.12C565.433 762.88 574.125 735.44 582.457 697.799C560.333 716.763 544.386 733.859 534.616 749.088C524.847 764.317 519.962 777.678 519.962 789.171C519.962 794.056 520.896 798.078 522.764 801.239C524.631 804.4 527.72 805.98 532.03 805.98Z" fill-rule="evenodd"/>
<path clip-path="url(#TextBounds_8)" d="M778.562 653.837C761.61 653.837 747.171 649.599 735.247 641.123C723.322 632.646 714.343 621.512 708.309 607.72C702.275 593.928 699.258 579.13 699.258 563.327C699.258 541.49 703.353 522.023 711.542 504.927C719.731 487.83 730.865 474.469 744.944 464.844C759.024 455.218 774.827 450.405 792.354 450.405C809.307 450.405 823.817 454.643 835.885 463.12C847.953 471.596 857.004 482.73 863.038 496.522C869.072 510.314 872.089 525.112 872.089 540.915C872.089 562.752 867.923 582.219 859.59 599.316C851.258 616.412 839.98 629.773 825.757 639.399C811.534 649.024 795.802 653.837 778.562 653.837ZM783.303 607.289C793.073 607.289 801.333 601.973 808.086 591.342C814.838 580.711 818.214 565.195 818.214 544.794C818.214 528.991 815.341 517.066 809.594 509.021C803.848 500.976 796.952 496.953 788.906 496.953C778.562 496.953 770.014 502.197 763.262 512.685C756.509 523.172 753.133 538.76 753.133 559.448C753.133 575.826 756.007 587.894 761.753 595.652C767.5 603.41 774.683 607.289 783.303 607.289Z" fill-rule="evenodd"/>
</g>
<g fill="#000000" opacity="0.251923" stroke="none">
<path clip-path="url(#TextBounds_9)" d="M670.433 904.567C687.489 904.567 697.001 904.895 708.153 906.207L708.153 881.935C696.673 883.575 688.801 883.903 670.105 883.903L478.225 883.903C459.529 883.903 451.657 883.575 440.177 881.935L440.177 906.207C451.329 904.895 460.841 904.567 477.897 904.567L566.785 904.567C566.129 930.151 561.209 956.063 553.665 972.463C540.217 1002.31 513.649 1023.3 470.681 1037.08C478.881 1044.95 481.505 1048.56 486.097 1058.4C512.993 1047.57 529.393 1038.39 543.825 1025.93C568.753 1004.93 582.529 978.039 588.105 939.335C590.073 926.543 591.385 914.407 591.713 904.567L670.433 904.567ZM473.305 825.519C483.145 824.207 491.673 823.879 510.697 823.879L638.945 823.879C657.969 823.879 666.497 824.207 676.337 825.519L676.337 800.591C665.513 802.559 658.953 802.887 638.617 802.887L511.025 802.887C490.689 802.887 484.129 802.559 473.305 800.591L473.305 825.519Z" fill-rule="evenodd"/>
<path clip-path="url(#TextBounds_9)" d="M549.729 1342.45L482.817 1352.94C468.057 1355.24 459.529 1355.89 448.705 1356.22L453.297 1381.15C461.825 1378.53 472.649 1376.23 486.097 1373.93L553.665 1363.44L565.473 1429.69L478.225 1443.8C464.777 1446.09 456.577 1446.75 445.753 1446.75L450.017 1471.68C460.841 1468.4 462.809 1468.07 481.505 1465.12L569.409 1451.01L582.857 1524.49C585.153 1538.92 586.465 1547.12 586.793 1555.97L613.033 1551.05C609.753 1540.89 608.769 1536.95 605.817 1519.89L592.369 1447.41L674.697 1434.29C676.993 1433.96 678.633 1433.63 682.241 1432.97C687.817 1431.99 691.097 1431.33 692.409 1431.33C698.313 1430.35 700.281 1430.02 706.841 1429.69L702.249 1405.42C694.049 1408.37 684.537 1410.34 669.777 1412.97L588.433 1426.09L575.969 1359.83L650.425 1348.35C670.761 1345.07 670.761 1345.07 679.617 1344.09L675.025 1320.47C667.481 1323.09 660.593 1324.73 646.161 1327.03L572.033 1338.51L565.473 1302.43C562.849 1288.65 562.193 1282.42 561.865 1274.55L535.953 1278.81C539.233 1286.69 540.873 1292.92 543.169 1306.69L549.729 1342.45Z" fill-rule="evenodd"/>
<path clip-path="url(#TextBounds_9)" d="M705.857 2013.21C668.465 1973.52 639.601 1947.61 596.633 1914.81C616.969 1889.55 632.385 1863.64 650.753 1822.97C654.361 1814.77 656.657 1810.83 659.937 1806.89L646.161 1792.79C640.585 1794.76 636.649 1795.09 625.169 1795.41L508.073 1796.73C503.481 1796.73 500.529 1796.73 499.545 1796.73C488.393 1796.73 482.489 1796.4 473.633 1795.09L474.289 1821.65C483.801 1820.01 493.313 1819.36 508.073 1819.03L617.625 1817.39C621.561 1817.39 622.545 1817.39 625.497 1817.06C625.169 1818.05 625.169 1818.37 624.513 1819.36C623.857 1821 623.529 1821.33 622.873 1823.29C598.929 1880.69 558.257 1932.52 505.777 1971.22C480.521 1989.92 464.449 1998.77 439.193 2008.94C447.393 2017.14 450.017 2020.75 455.265 2030.59C479.537 2018.45 496.921 2007.63 519.553 1991.23C543.169 1973.85 559.241 1958.76 582.201 1932.52C624.185 1964.99 661.249 2000.74 687.161 2033.87L705.857 2013.21Z" fill-rule="evenodd"/>
<path clip-path="url(#TextBounds_9)" d="M535.625 2533.09C534.313 2523.9 533.985 2516.69 533.985 2498.32L533.985 2399.59C533.985 2391.39 533.657 2386.8 532.673 2380.24L533.329 2379.91C536.281 2382.21 538.577 2383.52 543.497 2385.49C589.745 2404.51 635.009 2428.78 665.841 2450.43L679.945 2426.16C622.545 2393.03 584.497 2374.99 533.985 2356.95L533.985 2295.61C533.985 2276.92 534.313 2270.03 535.625 2261.5L507.417 2261.5C508.729 2269.7 509.385 2277.57 509.385 2294.96L509.385 2498.65C509.385 2516.36 508.729 2524.23 507.417 2533.09L535.625 2533.09Z" fill-rule="evenodd"/>
</g>
<g fill="#000000" opacity="1" stroke="none">
<path clip-path="url(#TextBounds_10)" d="M1508.72 279.019C1536.02 279.019 1551.25 279.544 1569.1 281.644L1569.1 242.794C1550.72 245.419 1538.12 245.944 1508.2 245.944L1201.07 245.944C1171.15 245.944 1158.55 245.419 1140.17 242.794L1140.17 281.644C1158.02 279.544 1173.25 279.019 1200.55 279.019L1342.82 279.019C1341.77 319.969 1333.9 361.444 1321.82 387.694C1300.3 435.469 1257.77 469.069 1189 491.119C1202.12 503.719 1206.32 509.494 1213.67 525.244C1256.72 507.919 1282.97 493.219 1306.07 473.269C1345.97 439.669 1368.02 396.619 1376.95 334.669C1380.1 314.194 1382.2 294.769 1382.72 279.019L1508.72 279.019ZM1193.2 152.494C1208.95 150.394 1222.6 149.869 1253.05 149.869L1458.32 149.869C1488.77 149.869 1502.42 150.394 1518.17 152.494L1518.17 112.594C1500.85 115.744 1490.35 116.269 1457.8 116.269L1253.57 116.269C1221.02 116.269 1210.52 115.744 1193.2 112.594L1193.2 152.494Z" fill-rule="evenodd"/>
<path clip-path="url(#TextBounds_10)" d="M1315.52 979.894L1208.42 996.694C1184.8 1000.37 1171.15 1001.42 1153.82 1001.94L1161.17 1041.84C1174.82 1037.64 1192.15 1033.97 1213.67 1030.29L1321.82 1013.49L1340.72 1119.54L1201.07 1142.12C1179.55 1145.79 1166.42 1146.84 1149.1 1146.84L1155.92 1186.74C1173.25 1181.49 1176.4 1180.97 1206.32 1176.24L1347.02 1153.67L1368.55 1271.27C1372.22 1294.37 1374.32 1307.49 1374.85 1321.67L1416.85 1313.79C1411.6 1297.52 1410.02 1291.22 1405.3 1263.92L1383.77 1147.89L1515.55 1126.89C1519.22 1126.37 1521.85 1125.84 1527.62 1124.79C1536.55 1123.22 1541.8 1122.17 1543.9 1122.17C1553.35 1120.59 1556.5 1120.07 1567 1119.54L1559.65 1080.69C1546.52 1085.42 1531.3 1088.57 1507.67 1092.77L1377.47 1113.77L1357.52 1007.72L1476.7 989.344C1509.25 984.094 1509.25 984.094 1523.42 982.519L1516.07 944.719C1504 948.919 1492.97 951.544 1469.87 955.219L1351.22 973.594L1340.72 915.844C1336.52 893.794 1335.47 883.819 1334.95 871.219L1293.47 878.044C1298.72 890.644 1301.35 900.619 1305.02 922.669L1315.52 979.894Z" fill-rule="evenodd"/>
<path clip-path="url(#TextBounds_10)" d="M1565.42 2053.52C1505.57 1989.99 1459.37 1948.52 1390.6 1896.02C1423.15 1855.59 1447.82 1814.12 1477.22 1749.02C1483 1735.89 1486.67 1729.59 1491.92 1723.29L1469.87 1700.72C1460.95 1703.87 1454.65 1704.39 1436.27 1704.92L1248.85 1707.02C1241.5 1707.02 1236.77 1707.02 1235.2 1707.02C1217.35 1707.02 1207.9 1706.49 1193.72 1704.39L1194.77 1746.92C1210 1744.29 1225.22 1743.24 1248.85 1742.72L1424.2 1740.09C1430.5 1740.09 1432.07 1740.09 1436.8 1739.57C1436.27 1741.14 1436.27 1741.67 1435.22 1743.24C1434.17 1745.87 1433.65 1746.39 1432.6 1749.54C1394.27 1841.42 1329.17 1924.37 1245.17 1986.32C1204.75 2016.24 1179.02 2030.42 1138.6 2046.69C1151.72 2059.82 1155.92 2065.59 1164.32 2081.34C1203.17 2061.92 1231 2044.59 1267.22 2018.34C1305.02 1990.52 1330.75 1966.37 1367.5 1924.37C1434.7 1976.34 1494.02 2033.57 1535.5 2086.59L1565.42 2053.52Z" fill-rule="evenodd"/>
<path clip-path="url(#TextBounds_10)" d="M1292.95 2885.64C1290.85 2870.94 1290.32 2859.39 1290.32 2829.99L1290.32 2671.97C1290.32 2658.84 1289.8 2651.49 1288.22 2640.99L1289.27 2640.47C1294 2644.14 1297.67 2646.24 1305.55 2649.39C1379.57 2679.84 1452.02 2718.69 1501.37 2753.34L1523.95 2714.49C1432.07 2661.47 1371.17 2632.59 1290.32 2603.72L1290.32 2505.54C1290.32 2475.62 1290.85 2464.59 1292.95 2450.94L1247.8 2450.94C1249.9 2464.07 1250.95 2476.67 1250.95 2504.49L1250.95 2830.52C1250.95 2858.87 1249.9 2871.47 1247.8 2885.64L1292.95 2885.64Z" fill-rule="evenodd"/>
</g>
<g fill="#000000" opacity="1" stroke="none">
<path clip-path="url(#TextBounds_11)" d="M376.167 656.342C401.667 656.342 410.292 656.717 423.792 658.217L423.792 613.592C409.542 615.842 400.917 616.217 375.417 616.217L156.042 616.217C130.167 616.217 121.917 615.842 107.667 613.592L107.667 658.217C121.167 656.717 129.792 656.342 155.292 656.342L246.792 656.342C245.667 685.592 240.042 709.967 230.292 727.217C214.542 756.092 186.417 775.967 141.417 789.842C157.542 805.592 162.417 811.967 171.792 831.092C222.417 810.842 249.792 790.217 269.667 757.217C285.792 730.592 294.042 699.467 295.917 656.342L376.167 656.342ZM145.542 564.842C157.917 563.342 166.917 562.967 193.167 562.967L338.667 562.967C364.917 562.967 373.917 563.342 386.292 564.842L386.292 519.092C372.417 521.342 364.917 521.717 337.917 521.717L193.917 521.717C166.917 521.717 159.417 521.342 145.542 519.092L145.542 564.842Z" fill-rule="evenodd"/>
<path clip-path="url(#TextBounds_11)" d="M224.292 1139.34L154.542 1150.22C138.792 1152.47 126.792 1153.97 113.292 1154.34L120.792 1200.47C130.917 1197.47 144.792 1194.84 162.042 1191.84L231.792 1180.97L243.042 1242.47L151.917 1257.09C135.792 1259.72 124.917 1260.84 112.167 1260.84L119.667 1306.97C133.167 1303.22 139.917 1301.72 157.917 1298.72L250.542 1284.09L264.042 1357.97C267.042 1375.59 268.542 1386.09 268.917 1397.34L319.167 1388.34C315.042 1375.59 314.667 1374.47 310.167 1349.72L296.667 1276.97L385.917 1262.72C393.417 1261.59 398.292 1260.84 400.917 1260.47C402.792 1260.09 404.667 1259.72 406.917 1259.72C414.792 1258.22 416.292 1258.22 424.167 1257.84L415.917 1212.84C405.792 1215.84 392.667 1218.84 376.917 1221.47L288.792 1235.34L277.542 1173.84L356.667 1161.47C382.542 1157.34 382.542 1157.34 392.667 1156.59L384.792 1111.59C375.042 1114.97 367.167 1116.84 348.792 1119.84L269.667 1132.22L263.667 1099.59C261.042 1084.97 259.542 1074.09 259.167 1064.34L209.667 1072.22C213.792 1082.72 215.292 1089.09 218.667 1107.47L224.292 1139.34Z" fill-rule="evenodd"/>
<path clip-path="url(#TextBounds_11)" d="M428.292 1907.72C382.917 1863.84 382.917 1863.84 373.542 1855.59C348.042 1832.72 327.792 1816.97 304.167 1801.22C327.042 1770.47 345.417 1737.84 362.667 1697.72C366.792 1688.34 369.792 1683.09 374.667 1677.47L349.917 1651.97C340.542 1655.34 337.542 1655.72 316.542 1656.09L184.542 1657.97C180.042 1657.97 177.042 1657.97 175.542 1657.97C160.167 1657.97 153.042 1657.59 142.542 1655.72L144.042 1703.72C156.792 1701.84 166.917 1701.09 184.917 1700.72C303.042 1698.84 303.042 1698.84 309.042 1698.47L304.917 1708.22C280.542 1766.72 235.542 1821.09 178.917 1860.84C150.792 1880.72 132.792 1890.84 103.917 1902.09C119.292 1918.22 123.792 1924.22 134.292 1943.72C191.667 1915.59 234.792 1882.59 277.167 1835.34C318.042 1866.47 361.167 1908.47 392.292 1946.72L428.292 1907.72Z" fill-rule="evenodd"/>
<path clip-path="url(#TextBounds_11)" d="M229.167 2513.72C228.042 2501.34 227.667 2491.59 227.667 2472.09L227.667 2373.09C227.667 2362.59 227.292 2358.09 226.167 2347.59C229.167 2349.47 230.292 2349.84 238.917 2353.97C301.542 2382.84 340.542 2404.22 371.667 2425.59L397.917 2381.34C337.917 2347.59 279.042 2320.22 227.667 2302.22L227.667 2232.47C227.667 2209.22 227.667 2204.34 229.167 2193.09L177.792 2193.09C179.292 2203.22 180.042 2212.97 180.042 2231.34L180.042 2471.72C180.042 2491.59 179.667 2501.72 177.792 2513.72L229.167 2513.72Z" fill-rule="evenodd"/>
</g>
</g>
<g id="レイヤー-1" vectornator:layerName="レイヤー 1">
<path d="M1031.8 455.526L952.035 470.608" fill="none" fill-rule="evenodd" opacity="1" stroke="#50b4bd" stroke-linecap="round" stroke-linejoin="round" stroke-width="41.5116"/>
<path d="M958.087 336.529L906.353 399.091" fill="none" fill-rule="evenodd" opacity="1" stroke="#50b4bd" stroke-linecap="round" stroke-linejoin="round" stroke-width="41.5116"/>
<path d="M833.628 284.823L831.226 365.969" fill="none" fill-rule="evenodd" opacity="1" stroke="#50b4bd" stroke-linecap="round" stroke-linejoin="round" stroke-width="41.5116"/>
</g>
</svg>
